<?xml version="1.0" encoding="UTF-8" standalone="no"?>
<svg
   width="64"
   height="64"
   fill="#00679a"
   version="1.1"
   id="svg1"
   xmlns="http://www.w3.org/2000/svg"
   xmlns:svg="http://www.w3.org/2000/svg">
  <defs
     id="defs1" />
  <path
     d="m 31.195,63.506 a 1.83,1.83 0 0 1 -0.506,-0.233 c -0.4,-0.273 -1.023,-0.977 -1.412,-1.575 -0.535,-0.825 -2.418,-3.325 -3.918,-5.197 -3.07,-3.848 -5.795,-6.93 -8.94,-10.108 -3.784,-3.83 -6.754,-6.44 -10.114,-8.9 -1.017,-0.744 -3.005,-2.07 -3.546,-2.36 -1.4,-0.75 -2.465,-1.773 -2.7,-2.558 -0.1,-0.33 -0.087,-1.08 0.017,-1.442 C 0.279,30.435 1.18,29.628 2.552,28.918 4.348,27.988 6.377,26.5 9.052,24.146 13.67,20.108 20.68,12.87 26.144,6.512 c 1.657,-1.924 2.523,-3.034 3,-3.854 0.738,-1.244 1.4,-1.947 1.994,-2.162 a 3.08,3.08 0 0 1 1.418,0 2.08,2.08 0 0 1 0.523,0.256 c 0.4,0.273 1.116,1.075 1.535,1.715 l 0.523,0.802 c 0.186,0.273 2.563,3.25 3.5,4.377 6.363,7.626 12.663,14.072 17.855,18.216 2.284,1.82 4.685,3.46 6.074,4.133 0.6,0.296 1.163,0.78 1.32,1.15 0.157,0.36 0.15,1.064 -0.012,1.5 -0.15,0.4 -0.715,0.988 -1.244,1.302 -1.273,0.744 -5.528,3.988 -8.196,6.25 -6.5,5.5 -12.23,11.358 -17.118,17.496 -1.093,1.378 -2.947,3.865 -3.203,4.296 a 5.4,5.4 0 0 1 -1.14,1.273 c -0.453,0.314 -1.168,0.413 -1.78,0.244 z m 1.75,-8.027 c 2.244,-0.884 8.138,-5.807 13.88,-11.602 3.453,-3.482 5.894,-6.336 7.266,-8.48 0.482,-0.76 1.035,-1.883 1.163,-2.377 0.157,-0.57 0.128,-1.256 -0.064,-1.86 C 54.365,28.59 51.208,24.458 46.21,19.395 40.71,13.832 35.456,9.67 32.806,8.787 c -1,-0.33 -1.482,-0.296 -2.5,0.192 C 25.65,11.214 13.054,23.473 9.3,29.414 c -0.465,0.744 -0.9,1.628 -1.058,2.145 -0.3,0.953 0.023,1.953 1.15,3.7 3.575,5.528 15.706,16.98 20.903,19.746 1.215,0.645 1.907,0.773 2.64,0.482 z m -0.948,-1.2 C 31.16,54.105 28.87,52.605 26.447,50.663 19.059,44.74 10.735,35.933 9.613,32.863 c -0.215,-0.6 -0.186,-0.85 0.227,-1.668 1.465,-2.935 6.923,-9.114 13.1,-14.8 3.197,-2.947 6.353,-5.423 7.93,-6.202 0.692,-0.35 1,-0.36 1.72,-0.08 4.325,1.716 15.77,12.496 19.903,18.74 1.215,1.837 1.668,2.96 1.5,3.697 -0.4,1.78 -3.284,5.476 -8.115,10.352 -5.522,5.58 -11.602,10.7 -13.532,11.393 -0.07,0.023 -0.233,0.023 -0.36,-0.006 z m 1.866,-6.946 c -0.017,-0.186 -0.105,-2.412 -0.192,-4.94 l -0.157,-4.6 H 31.84 c -0.924,0 -1.674,0.017 -1.674,0.047 a 1862.95,1862.95 0 0 1 -0.349,4.778 l -0.35,4.9 v 0.157 h 4.43 z m 0.634,-10.306 c 2.04,-0.145 3.743,-0.482 5.144,-1.017 a 19.98,19.98 0 0 0 2.848,-1.436 c 0.738,-0.482 1.32,-1.07 1.575,-1.587 a 1.45,1.45 0 0 0 0.198,-0.843 c 0,-0.942 -0.494,-1.535 -2.174,-2.58 -0.14,-0.087 -0.227,-0.18 -0.203,-0.203 0.03,-0.03 0.267,-0.1 0.53,-0.18 0.263,-0.08 0.477,-0.145 0.465,-0.15 a 253.14,253.14 0 0 0 -6.243,-1.744 c -0.017,0.017 0.15,0.564 0.366,1.22 l 0.4,1.197 0.378,-0.006 c 0.2,0 0.692,-0.023 1.075,-0.047 l 0.698,-0.047 0.395,0.2 c 0.535,0.285 1.314,0.872 1.598,1.2 0.692,0.83 0.703,1.5 0.035,2.226 -0.802,0.854 -2.017,1.36 -4.458,1.86 a 26.37,26.37 0 0 1 -6.045,0.564 c -2.162,-0.047 -3.767,-0.33 -5.307,-0.942 -1.93,-0.76 -2.883,-1.57 -2.9,-2.44 -0.012,-0.982 1.436,-2.087 3.918,-2.988 l 0.767,-0.285 -0.605,-0.35 -1.738,-1.023 -1.133,-0.663 -0.75,0.262 c -2.186,0.76 -3.842,1.668 -4.807,2.627 -0.64,0.645 -0.83,1.006 -0.854,1.662 -0.023,0.558 0.07,0.85 0.448,1.366 0.703,0.965 2.453,1.965 5.15,2.935 1.54,0.558 4.482,1.023 7.615,1.2 a 43.76,43.76 0 0 0 3.604,-0.017 z m -1.174,-2.83 -0.262,-8.98 c 0.023,-0.023 0.674,-0.052 1.447,-0.058 l 1.4,-0.017 -2.133,-5.04 -2.162,-5.07 c -0.017,-0.017 -0.767,2.226 -1.674,4.982 L 28.265,25.1 c -0.023,0.052 0.215,0.07 1.075,0.07 0.6,0 1.122,0.017 1.133,0.047 0.023,0.035 -0.18,6.522 -0.273,8.748 l -0.035,0.854 h 3.185 z"
     id="path1"
     style="fill:#ffffff" />
</svg>
