<svg xmlns="http://www.w3.org/2000/svg" xmlns:xlink="http://www.w3.org/1999/xlink" xmlns:inkscape="http://www.inkscape.org/namespaces/inkscape" version="1.1" width="262.13026" height="352.35719" viewBox="0 0 262.13026 352.35719">
<defs>
<clipPath id="clip_1">
<path transform="matrix(1,0,0,-1,-23.56594,420.9854)" d="M23.56594 68.62825H285.6962V420.9854H23.56594Z" clip-rule="evenodd"/>
</clipPath>
<clipPath id="clip_2">
<path transform="matrix(.001968504,0,0,.001968504,-23.56594,-29.014588)" d="M0 0H304800V228600H0V0Z"/>
</clipPath>
</defs>
<g>
<g clip-path="url(#clip_1)">
<g clip-path="url(#clip_2)">
<path transform="matrix(.001968504,0,0,.001968504,-23.56594,-29.014588)" d="M0 0H304800V228600H0Z" fill-opacity="0" fill-rule="evenodd"/>
<path transform="matrix(.001968504,0,0,.001968504,-23.56594,-29.014588)" d="M41568.974 74370.27C41568.974 72237.199 43298.17 70508 45431.244 70508H98510.7C99535.04 70508 100517.42 70914.917 101241.74 71639.238 101966.058 72363.55 102372.98 73345.93 102372.98 74370.27V160305.74C102372.98 162438.8 100643.77 164168 98510.7 164168H45431.244C43298.17 164168 41568.974 162438.8 41568.974 160305.74Z" fill-opacity="0" fill-rule="evenodd"/>
<path transform="matrix(.001968504,0,0,.001968504,-23.56594,-29.014588)" stroke-width="381" stroke-linecap="butt" stroke-dasharray="1524,1143,381,1143" stroke-linejoin="round" fill="none" stroke="#000000" d="M41568.974 74370.27C41568.974 72237.199 43298.17 70508 45431.244 70508H98510.7C99535.04 70508 100517.42 70914.917 101241.74 71639.238 101966.058 72363.55 102372.98 73345.93 102372.98 74370.27V160305.74C102372.98 162438.8 100643.77 164168 98510.7 164168H45431.244C43298.17 164168 41568.974 162438.8 41568.974 160305.74Z"/>
<path transform="matrix(.001968504,0,0,.001968504,-23.56594,-29.014588)" d="M48261.986 87262.11C48261.986 85571.75 49632.29 84201.449 51322.65 84201.449H93837.32C94649.06 84201.449 95427.558 84523.91 96001.54 85097.9 96575.52 85671.88 96897.988 86450.378 96897.988 87262.11V148508.78C96897.988 150199.14 95527.68 151569.46 93837.32 151569.46H51322.65C49632.29 151569.46 48261.986 150199.14 48261.986 148508.78Z" fill="#f3f3f3" fill-rule="evenodd"/>
<path transform="matrix(.001968504,0,0,.001968504,-23.56594,-29.014588)" stroke-width="381" stroke-linecap="butt" stroke-linejoin="round" fill="none" stroke="#000000" d="M48261.986 87262.11C48261.986 85571.75 49632.29 84201.449 51322.65 84201.449H93837.32C94649.06 84201.449 95427.558 84523.91 96001.54 85097.9 96575.52 85671.88 96897.988 86450.378 96897.988 87262.11V148508.78C96897.988 150199.14 95527.68 151569.46 93837.32 151569.46H51322.65C49632.29 151569.46 48261.986 150199.14 48261.986 148508.78Z"/>
<path transform="matrix(.001968504,0,0,.001968504,-23.56594,-29.014588)" d="M75340.36 153894.57V80646.558" fill-opacity="0" fill-rule="evenodd"/>
<path transform="matrix(.001968504,0,0,.001968504,-23.56594,-29.014588)" stroke-width="762" stroke-linecap="butt" stroke-linejoin="round" fill="none" stroke="#000000" d="M75340.36 153894.57V80646.558"/>
<path transform="matrix(.001968504,0,0,.001968504,-23.56594,-29.014588)" d="M58042.84 128200.238C58042.84 127123.26 58915.9 126250.199 59992.88 126250.199H90688.8C91205.988 126250.199 91701.988 126455.64 92067.69 126821.34 92433.39 127187.05 92638.839 127683.05 92638.839 128200.238V136000.16C92638.839 137077.13 91765.77 137950.19 90688.8 137950.19H59992.88C58915.9 137950.19 58042.84 137077.13 58042.84 136000.16Z" fill="#d6deea" fill-rule="evenodd"/>
<path transform="matrix(.001968504,0,0,.001968504,-23.56594,-29.014588)" stroke-width="381" stroke-linecap="butt" stroke-linejoin="round" fill="none" stroke="#000000" d="M58042.84 128200.238C58042.84 127123.26 58915.9 126250.199 59992.88 126250.199H90688.8C91205.988 126250.199 91701.988 126455.64 92067.69 126821.34 92433.39 127187.05 92638.839 127683.05 92638.839 128200.238V136000.16C92638.839 137077.13 91765.77 137950.19 90688.8 137950.19H59992.88C58915.9 137950.19 58042.84 137077.13 58042.84 136000.16Z"/>
<text xml:space="preserve" transform="matrix(.75 0 0 .75 91.815929 220.63373)" font-size="9.553867" font-family="MUFUZY+ArialMT"><tspan y="12.02697" x="20.823086 28.781458 34.093408 36.214368 38.860788 40.981748 44.163187 51.061079 56.373029 61.68498 66.99693">Multi-Head </tspan></text>
<text xml:space="preserve" transform="matrix(.75 0 0 .75 91.815929 220.63373)" font-size="9.553867" font-family="MUFUZY+ArialMT"><tspan y="23.02697" x="15.772465 22.135342 27.447293 29.56825 32.214673 34.33563 40.698507 43.344926 45.99135 51.3033 56.61525 59.261674 61.382635 66.69458">Self Attention</tspan></text>
<path transform="matrix(.001968504,0,0,.001968504,-23.56594,-29.014588)" d="M54574.56 135334.77V135334.77 147838.77H75202.56" fill-opacity="0" fill-rule="evenodd"/>
<path transform="matrix(.001968504,0,0,.001968504,-23.56594,-29.014588)" stroke-width="762" stroke-linecap="butt" stroke-linejoin="round" fill="none" stroke="#000000" d="M54574.56 135334.77V135334.77 147838.77H75202.56"/>
<path transform="matrix(.001968504,0,0,.001968504,-23.56594,-29.014588)" d="M54570.677 136139.16H54579.05V122987.167H68298.67" fill-opacity="0" fill-rule="evenodd"/>
<path transform="matrix(.001968504,0,0,.001968504,-23.56594,-29.014588)" stroke-width="762" stroke-linecap="butt" stroke-linejoin="round" fill="none" stroke="#000000" d="M54570.677 136139.16H54579.05V122987.167H68298.67"/>
<path transform="matrix(.001968504,0,0,.001968504,-23.56594,-29.014588)" d="M10034.248 97307.5H40262.25V113651.5H10034.248Z" fill-opacity="0" fill-rule="evenodd"/>
<text xml:space="preserve" transform="matrix(.75 0 0 .75 -3.8134824 162.53562)" font-size="10.666667" font-family="MUFUZY+STIXTwoText-Regular"><tspan y="18.88882" x="14.200647 20.877982 28.792649 35.843317 43.70465 51.491319 58.16865 65.19798">ENCODER </tspan></text>
<text xml:space="preserve" transform="matrix(.75 0 0 .75 -3.8134824 162.53562)" font-size="10.666667" font-family="MUFUZY+STIXTwoText-Regular"><tspan y="31.68882" x="25.299372 31.891373 39.75271 47.166044">BODY</tspan></text>
<path transform="matrix(.001968504,0,0,.001968504,-23.56594,-29.014588)" d="M8018.037 43995H42278.04V60339H8018.037Z" fill-opacity="0" fill-rule="evenodd"/>
<text xml:space="preserve" transform="matrix(.75 0 0 .75 -7.782402 57.589746)" font-size="10.666667" font-family="MUFUZY+STIXTwoText-Regular"><tspan y="18.88882" x="12.75182 18.821154 25.850487 32.52782 40.314489 44.122488 51.226488 57.658487 61.466485 69.32782 77.242488">PREDICTION </tspan></text>
<text xml:space="preserve" transform="matrix(.75 0 0 .75 -7.782402 57.589746)" font-size="10.666667" font-family="MUFUZY+STIXTwoText-Regular"><tspan y="31.68882" x="29.769993 38.05799 44.735326 52.393995">HEAD</tspan></text>
<path transform="matrix(.001968504,0,0,.001968504,-23.56594,-29.014588)" d="M114173.7 170055.63H124709.7V181599.63H114173.7Z" fill-opacity="0" fill-rule="evenodd"/>
<text xml:space="preserve" transform="matrix(.75 0 0 .75 201.18543 305.74058)" font-size="18.666666" font-family="MUFUZY+STIXTwoText-Bold" font-weight="bold"><tspan y="21.869606" x="9">c</tspan></text>
<path transform="matrix(.001968504,0,0,.001968504,-23.56594,-29.014588)" d="M68550.769 186690.58 71085.8 181326.58H79527.74L82062.769 186690.58Z" fill="#d6deea" fill-rule="evenodd"/>
<path transform="matrix(.001968504,0,0,.001968504,-23.56594,-29.014588)" stroke-width="381" stroke-linecap="butt" stroke-linejoin="round" fill="none" stroke="#000000" d="M68550.769 186690.58 71085.8 181326.58H79527.74L82062.769 186690.58Z"/>
<path transform="matrix(.001968504,0,0,.001968504,-23.56594,-29.014588)" d="M48261.5 41992.009C48261.5 41182.908 48917.408 40527 49726.51 40527H95432.49C95821.03 40527 96193.667 40681.349 96468.41 40956.09 96743.15 41230.833 96897.5 41603.466 96897.5 41992.009V62341.99C96897.5 63151.09 96241.59 63807 95432.49 63807H49726.51C48917.408 63807 48261.5 63151.09 48261.5 62341.99Z" fill="#f3f3f3" fill-rule="evenodd"/>
<path transform="matrix(.001968504,0,0,.001968504,-23.56594,-29.014588)" stroke-width="381" stroke-linecap="butt" stroke-linejoin="round" fill="none" stroke="#000000" d="M48261.5 41992.009C48261.5 41182.908 48917.408 40527 49726.51 40527H95432.49C95821.03 40527 96193.667 40681.349 96468.41 40956.09 96743.15 41230.833 96897.5 41603.466 96897.5 41992.009V62341.99C96897.5 63151.09 96241.59 63807 95432.49 63807H49726.51C48917.408 63807 48261.5 63151.09 48261.5 62341.99Z"/>
<path transform="matrix(.001968504,0,0,.001968504,-23.56594,-29.014588)" d="M58144 53706.029C58144 52965.95 58743.95 52366 59484.029 52366H91063.98C91419.37 52366 91760.21 52507.18 92011.519 52758.486 92262.82 53009.79 92404 53350.63 92404 53706.029V59065.974C92404 59806.05 91804.05 60406 91063.98 60406H59484.029C58743.95 60406 58144 59806.05 58144 59065.974Z" fill="#d6deea" fill-rule="evenodd"/>
<path transform="matrix(.001968504,0,0,.001968504,-23.56594,-29.014588)" stroke-width="381" stroke-linecap="butt" stroke-linejoin="round" fill="none" stroke="#000000" d="M58144 53706.029C58144 52965.95 58743.95 52366 59484.029 52366H91063.98C91419.37 52366 91760.21 52507.18 92011.519 52758.486 92262.82 53009.79 92404 53350.63 92404 53706.029V59065.974C92404 59806.05 91804.05 60406 91063.98 60406H59484.029C58743.95 60406 58144 59806.05 58144 59065.974Z"/>
<text xml:space="preserve" transform="matrix(.75 0 0 .75 91.66335 74.8407)" font-size="10.1624" font-family="MUFUZY+ArialMT"><tspan y="13.276953" x="34.059396 40.25846 46.457529">FFN</tspan></text>
<path transform="matrix(.001968504,0,0,.001968504,-23.56594,-29.014588)" d="M75274 52366 75214 42682" fill-opacity="0" fill-rule="evenodd"/>
<path transform="matrix(.001968504,0,0,.001968504,-23.56594,-29.014588)" stroke-width="762" stroke-linecap="butt" stroke-linejoin="round" fill="none" stroke="#000000" d="M75274 52366 75214 42682"/>
<path transform="matrix(.001968504,0,0,.001968504,-23.56594,-29.014588)" d="M73019.5 48543H90875.5V44379" fill-opacity="0" fill-rule="evenodd"/>
<path transform="matrix(.001968504,0,0,.001968504,-23.56594,-29.014588)" stroke-width="762" stroke-linecap="butt" stroke-linejoin="round" fill="none" stroke="#000000" d="M73019.5 48543H90875.5V44379"/>
<path transform="matrix(.001968504,0,0,.001968504,-23.56594,-29.014588)" d="M74312.5 48543H54284.5V44379" fill-opacity="0" fill-rule="evenodd"/>
<path transform="matrix(.001968504,0,0,.001968504,-23.56594,-29.014588)" stroke-width="762" stroke-linecap="butt" stroke-linejoin="round" fill="none" stroke="#000000" d="M74312.5 48543H54284.5V44379"/>
<path transform="matrix(.001968504,0,0,.001968504,-23.56594,-29.014588)" d="M59649.626 36327.794C59649.626 36029.12 59891.748 35787 60190.419 35787H66728.839C66872.26 35787 67009.81 35843.978 67111.238 35945.396 67212.65 36046.814 67269.628 36184.365 67269.628 36327.794V43838.208C67269.628 44136.88 67027.51 44379 66728.839 44379H60190.419C59891.748 44379 59649.626 44136.88 59649.626 43838.208Z" fill="#f3f3f3" fill-rule="evenodd"/>
<path transform="matrix(.001968504,0,0,.001968504,-23.56594,-29.014588)" stroke-width="381" stroke-linecap="butt" stroke-linejoin="round" fill="none" stroke="#000000" d="M59649.626 36327.794C59649.626 36029.12 59891.748 35787 60190.419 35787H66728.839C66872.26 35787 67009.81 35843.978 67111.238 35945.396 67212.65 36046.814 67269.628 36184.365 67269.628 36327.794V43838.208C67269.628 44136.88 67027.51 44379 66728.839 44379H60190.419C59891.748 44379 59649.626 44136.88 59649.626 43838.208Z"/>
<text xml:space="preserve" transform="matrix(.75 0 0 .75 94.166378 41.744066)" font-size="7.1137335" font-family="MUFUZY+Arial-BoldMT" font-weight="bold"><tspan y="13.189046" x="6.0964028">h</tspan></text>
<text xml:space="preserve" transform="matrix(.75 0 0 .75 94.166378 41.744066)" font-size="4.742489" font-family="MUFUZY+Arial-BoldMT" font-weight="bold"><tspan y="15.856696" x="10.4391">2</tspan></text>
<path transform="matrix(.001968504,0,0,.001968504,-23.56594,-29.014588)" d="M72953.5 48543H81653.5V44379" fill-opacity="0" fill-rule="evenodd"/>
<path transform="matrix(.001968504,0,0,.001968504,-23.56594,-29.014588)" stroke-width="762" stroke-linecap="butt" stroke-linejoin="round" fill="none" stroke="#000000" d="M72953.5 48543H81653.5V44379"/>
<path transform="matrix(.001968504,0,0,.001968504,-23.56594,-29.014588)" d="M72459.628 48543H63459.626V44379" fill-opacity="0" fill-rule="evenodd"/>
<path transform="matrix(.001968504,0,0,.001968504,-23.56594,-29.014588)" stroke-width="762" stroke-linecap="butt" stroke-linejoin="round" fill="none" stroke="#000000" d="M72459.628 48543H63459.626V44379"/>
<path transform="matrix(.001968504,0,0,.001968504,-23.56594,-29.014588)" d="M74958.5 22599V35787" fill-opacity="0" fill-rule="evenodd"/>
<path transform="matrix(.001968504,0,0,.001968504,-23.56594,-29.014588)" stroke-width="762" stroke-linecap="butt" stroke-linejoin="round" fill="none" stroke="#000000" d="M74958.5 27171V35787"/>
<path transform="matrix(.001968504,0,0,.001968504,-23.56594,-29.014588)" d="M76217.12 27171 74958.5 23712.969 73699.88 27171Z" fill-rule="evenodd"/>
<path transform="matrix(.001968504,0,0,.001968504,-23.56594,-29.014588)" stroke-width="762" stroke-linecap="butt" stroke-miterlimit="10" stroke-linejoin="miter" fill="none" stroke="#000000" d="M76217.12 27171 74958.5 23712.969 73699.88 27171Z"/>
<path transform="matrix(.001968504,0,0,.001968504,-23.56594,-29.014588)" d="M72017.238 31707.143H55085.236V35871.14" fill-opacity="0" fill-rule="evenodd"/>
<path transform="matrix(.001968504,0,0,.001968504,-23.56594,-29.014588)" stroke-width="762" stroke-linecap="butt" stroke-linejoin="round" fill="none" stroke="#000000" d="M72017.238 31707.143H55085.236V35871.14"/>
<path transform="matrix(.001968504,0,0,.001968504,-23.56594,-29.014588)" d="M71977.34 31708.666H90085.34V35776.669" fill-opacity="0" fill-rule="evenodd"/>
<path transform="matrix(.001968504,0,0,.001968504,-23.56594,-29.014588)" stroke-width="762" stroke-linecap="butt" stroke-linejoin="round" fill="none" stroke="#000000" d="M71977.34 31708.666H90085.34V35776.669"/>
<path transform="matrix(.001968504,0,0,.001968504,-23.56594,-29.014588)" d="M71915.01 31707.143H63827.009V35871.14" fill-opacity="0" fill-rule="evenodd"/>
<path transform="matrix(.001968504,0,0,.001968504,-23.56594,-29.014588)" stroke-width="762" stroke-linecap="butt" stroke-linejoin="round" fill="none" stroke="#000000" d="M71915.01 31707.143H63827.009V35871.14"/>
<path transform="matrix(.001968504,0,0,.001968504,-23.56594,-29.014588)" d="M71979.839 31707.143H81327.839V35871.14" fill-opacity="0" fill-rule="evenodd"/>
<path transform="matrix(.001968504,0,0,.001968504,-23.56594,-29.014588)" stroke-width="762" stroke-linecap="butt" stroke-linejoin="round" fill="none" stroke="#000000" d="M71979.839 31707.143H81327.839V35871.14"/>
<path transform="matrix(.001968504,0,0,.001968504,-23.56594,-29.014588)" d="M72946.93 31489.03C72946.93 30377.717 73847.83 29476.82 74959.14 29476.82 75492.81 29476.82 76004.628 29688.82 76381.988 30066.184 76759.35 30443.545 76971.35 30955.358 76971.35 31489.03 76971.35 32600.34 76070.45 33501.24 74959.14 33501.24 73847.83 33501.24 72946.93 32600.34 72946.93 31489.03Z" fill="#ffffff" fill-rule="evenodd"/>
<path transform="matrix(.001968504,0,0,.001968504,-23.56594,-29.014588)" stroke-width="381" stroke-linecap="butt" stroke-linejoin="round" fill="none" stroke="#000000" d="M72946.93 31489.03C72946.93 30377.717 73847.83 29476.82 74959.14 29476.82 75492.81 29476.82 76004.628 29688.82 76381.988 30066.184 76759.35 30443.545 76971.35 30955.358 76971.35 31489.03 76971.35 32600.34 76070.45 33501.24 74959.14 33501.24 73847.83 33501.24 72946.93 32600.34 72946.93 31489.03Z"/>
<path transform="matrix(.001968504,0,0,.001968504,-23.56594,-29.014588)" d="M76258.9 31489.03H73661.32" fill-opacity="0" fill-rule="evenodd"/>
<path transform="matrix(.001968504,0,0,.001968504,-23.56594,-29.014588)" stroke-width="381" stroke-linecap="butt" stroke-linejoin="round" fill="none" stroke="#000000" d="M76258.9 31489.03H73661.32"/>
<path transform="matrix(.001968504,0,0,.001968504,-23.56594,-29.014588)" d="M74959.14 30189.272V32786.849" fill-opacity="0" fill-rule="evenodd"/>
<path transform="matrix(.001968504,0,0,.001968504,-23.56594,-29.014588)" stroke-width="381" stroke-linecap="butt" stroke-linejoin="round" fill="none" stroke="#000000" d="M74959.14 30189.272V32786.849"/>
<path transform="matrix(.001968504,0,0,.001968504,-23.56594,-29.014588)" d="M21612.815 122239.16C19995.608 120775.33 19447.825 118466.238 20235.188 116431.98 21022.55 114397.73 22982.182 113059.128 25163.489 113065.53 27344.793 113071.93 29296.536 114422 30071.948 116460.84 30847.36 118499.68 30286.036 120805.52 28660.266 122259.83L25148.032 118333.51Z" fill-opacity="0" fill-rule="evenodd"/>
<path transform="matrix(.001968504,0,0,.001968504,-23.56594,-29.014588)" d="M21612.815 122239.16C19995.608 120775.33 19447.825 118466.238 20235.188 116431.98 21022.55 114397.73 22982.182 113059.128 25163.489 113065.53 27344.793 113071.93 29296.536 114422 30071.948 116460.84 30847.36 118499.68 30286.036 120805.52 28660.266 122259.83" fill-opacity="0" fill-rule="evenodd"/>
<path transform="matrix(.001968504,0,0,.001968504,-23.56594,-29.014588)" stroke-width="381" stroke-linecap="butt" stroke-linejoin="round" fill="none" stroke="#000000" d="M20545.784 120897.16 20507.987 120828.38C20476.905 120770.558 20446.94 120712.199 20418.1 120653.37 20360.42 120535.699 20307.245 120416.089 20258.633 120294.82 20161.41 120052.29 20082.458 119803.11 20022.288 119549.48 19781.612 118534.949 19841.506 117449.11 20235.188 116431.98 21022.55 114397.73 22982.182 113059.128 25163.489 113065.53 27344.793 113071.93 29296.536 114422 30071.948 116460.84 30847.36 118499.68 30286.036 120805.52 28660.266 122259.83"/>
<path transform="matrix(.001968504,0,0,.001968504,-23.56594,-29.014588)" stroke-width="381" stroke-linecap="butt" stroke-miterlimit="10" stroke-linejoin="miter" fill="none" stroke="#000000" d="M20216.018 121159.36 21266.172 121803.19 20875.55 120634.96Z"/>
<text xml:space="preserve" transform="matrix(.75 0 0 .75 15.567978 193.5553)" font-size="12" font-family="MUFUZY+STIXTwoText-Regular"><tspan y="16.586043" x="9.374738">N</tspan></text>
<path transform="matrix(.001968504,0,0,.001968504,-23.56594,-29.014588)" d="M75306.769 181326.58V163998.58" fill-opacity="0" fill-rule="evenodd"/>
<path transform="matrix(.001968504,0,0,.001968504,-23.56594,-29.014588)" stroke-width="711" stroke-linecap="butt" stroke-linejoin="round" fill="none" stroke="#000000" d="M75306.769 181326.58V163998.58"/>
<path transform="matrix(.001968504,0,0,.001968504,-23.56594,-29.014588)" d="M114174.31 183303.88 108810.31 180768.86V172326.9L114174.31 169791.88Z" fill="#d6deea" fill-rule="evenodd"/>
<path transform="matrix(.001968504,0,0,.001968504,-23.56594,-29.014588)" stroke-width="381" stroke-linecap="butt" stroke-linejoin="round" fill="none" stroke="#000000" d="M114174.31 183303.88 108810.31 180768.86V172326.9L114174.31 169791.88Z"/>
<path transform="matrix(.001968504,0,0,.001968504,-23.56594,-29.014588)" d="M54474.474 103492V103492 114412H75366.47" fill-opacity="0" fill-rule="evenodd"/>
<path transform="matrix(.001968504,0,0,.001968504,-23.56594,-29.014588)" stroke-width="762" stroke-linecap="butt" stroke-linejoin="round" fill="none" stroke="#000000" d="M54474.474 103492V103492 114412H75366.47"/>
<path transform="matrix(.001968504,0,0,.001968504,-23.56594,-29.014588)" d="M54479.677 103545.167V89445.167H68231.67" fill-opacity="0" fill-rule="evenodd"/>
<path transform="matrix(.001968504,0,0,.001968504,-23.56594,-29.014588)" stroke-width="762" stroke-linecap="butt" stroke-linejoin="round" fill="none" stroke="#000000" d="M54479.677 103545.167V89445.167H68231.67"/>
<path transform="matrix(.001968504,0,0,.001968504,-23.56594,-29.014588)" d="M69040.5 154127.88H81568.5V162167.88H69040.5Z" fill-opacity="0" fill-rule="evenodd"/>
<text xml:space="preserve" transform="matrix(.75 0 0 .75 112.34055 274.38676)" font-size="18.666666" font-family="MUFUZY+STIXTwoText-Bold" font-weight="bold"><tspan y="17.271182" x="11.823521">z</tspan></text>
<path transform="matrix(.001968504,0,0,.001968504,-23.56594,-29.014588)" d="M75274 70702V60466" fill-opacity="0" fill-rule="evenodd"/>
<path transform="matrix(.001968504,0,0,.001968504,-23.56594,-29.014588)" stroke-width="762" stroke-linecap="butt" stroke-linejoin="round" fill="none" stroke="#000000" d="M75274 70702V60466"/>
<path transform="matrix(.001968504,0,0,.001968504,-23.56594,-29.014588)" d="M50474.5 36327.794C50474.5 36029.12 50716.62 35787 51015.29 35787H57553.708C57697.134 35787 57834.689 35843.978 57936.107 35945.396 58037.525 36046.814 58094.5 36184.365 58094.5 36327.794V43838.208C58094.5 44136.88 57852.38 44379 57553.708 44379H51015.29C50716.62 44379 50474.5 44136.88 50474.5 43838.208Z" fill="#f3f3f3" fill-rule="evenodd"/>
<path transform="matrix(.001968504,0,0,.001968504,-23.56594,-29.014588)" stroke-width="381" stroke-linecap="butt" stroke-linejoin="round" fill="none" stroke="#000000" d="M50474.5 36327.794C50474.5 36029.12 50716.62 35787 51015.29 35787H57553.708C57697.134 35787 57834.689 35843.978 57936.107 35945.396 58037.525 36046.814 58094.5 36184.365 58094.5 36327.794V43838.208C58094.5 44136.88 57852.38 44379 57553.708 44379H51015.29C50716.62 44379 50474.5 44136.88 50474.5 43838.208Z"/>
<text xml:space="preserve" transform="matrix(.75 0 0 .75 76.10511 41.744066)" font-size="7.1137335" font-family="MUFUZY+Arial-BoldMT" font-weight="bold"><tspan y="13.189046" x="6.0964028">h</tspan></text>
<text xml:space="preserve" transform="matrix(.75 0 0 .75 76.10511 41.744066)" font-size="4.742489" font-family="MUFUZY+Arial-BoldMT" font-weight="bold"><tspan y="15.856696" x="10.4391">1</tspan></text>
<path transform="matrix(.001968504,0,0,.001968504,-23.56594,-29.014588)" d="M68706.628 36327.794C68706.628 36029.12 68948.74 35787 69247.417 35787H75785.839C75929.26 35787 76066.81 35843.978 76168.238 35945.396 76269.65 36046.814 76326.628 36184.365 76326.628 36327.794V43838.208C76326.628 44136.88 76084.51 44379 75785.839 44379H69247.417C68948.74 44379 68706.628 44136.88 68706.628 43838.208Z" fill="#f3f3f3" fill-rule="evenodd"/>
<path transform="matrix(.001968504,0,0,.001968504,-23.56594,-29.014588)" stroke-width="381" stroke-linecap="butt" stroke-linejoin="round" fill="none" stroke="#000000" d="M68706.628 36327.794C68706.628 36029.12 68948.74 35787 69247.417 35787H75785.839C75929.26 35787 76066.81 35843.978 76168.238 35945.396 76269.65 36046.814 76326.628 36184.365 76326.628 36327.794V43838.208C76326.628 44136.88 76084.51 44379 75785.839 44379H69247.417C68948.74 44379 68706.628 44136.88 68706.628 43838.208Z"/>
<text xml:space="preserve" transform="matrix(.75 0 0 .75 111.995128 41.744066)" font-size="7.1137335" font-family="MUFUZY+Arial-BoldMT" font-weight="bold"><tspan y="13.189046" x="6.0964028">h</tspan></text>
<text xml:space="preserve" transform="matrix(.75 0 0 .75 111.995128 41.744066)" font-size="4.742489" font-family="MUFUZY+Arial-BoldMT" font-weight="bold"><tspan y="15.856696" x="10.4391">3</tspan></text>
<path transform="matrix(.001968504,0,0,.001968504,-23.56594,-29.014588)" d="M77843.5 36327.794C77843.5 36029.12 78085.62 35787 78384.29 35787H84922.71C85066.13 35787 85203.69 35843.978 85305.1 35945.396 85406.52 36046.814 85463.5 36184.365 85463.5 36327.794V43838.208C85463.5 44136.88 85221.378 44379 84922.71 44379H78384.29C78085.62 44379 77843.5 44136.88 77843.5 43838.208Z" fill="#f3f3f3" fill-rule="evenodd"/>
<path transform="matrix(.001968504,0,0,.001968504,-23.56594,-29.014588)" stroke-width="381" stroke-linecap="butt" stroke-linejoin="round" fill="none" stroke="#000000" d="M77843.5 36327.794C77843.5 36029.12 78085.62 35787 78384.29 35787H84922.71C85066.13 35787 85203.69 35843.978 85305.1 35945.396 85406.52 36046.814 85463.5 36184.365 85463.5 36327.794V43838.208C85463.5 44136.88 85221.378 44379 84922.71 44379H78384.29C78085.62 44379 77843.5 44136.88 77843.5 43838.208Z"/>
<text xml:space="preserve" transform="matrix(.75 0 0 .75 129.98108 41.744066)" font-size="7.1137335" font-family="MUFUZY+Arial-BoldMT" font-weight="bold"><tspan y="13.189046" x="6.0964028">h</tspan></text>
<text xml:space="preserve" transform="matrix(.75 0 0 .75 129.98108 41.744066)" font-size="4.742489" font-family="MUFUZY+Arial-BoldMT" font-weight="bold"><tspan y="15.856696" x="10.4391">4</tspan></text>
<path transform="matrix(.001968504,0,0,.001968504,-23.56594,-29.014588)" d="M87065.5 36327.794C87065.5 36029.12 87307.62 35787 87606.29 35787H94144.71C94288.13 35787 94425.69 35843.978 94527.1 35945.396 94628.52 36046.814 94685.5 36184.365 94685.5 36327.794V43838.208C94685.5 44136.88 94443.378 44379 94144.71 44379H87606.29C87307.62 44379 87065.5 44136.88 87065.5 43838.208Z" fill="#f3f3f3" fill-rule="evenodd"/>
<path transform="matrix(.001968504,0,0,.001968504,-23.56594,-29.014588)" stroke-width="381" stroke-linecap="butt" stroke-linejoin="round" fill="none" stroke="#000000" d="M87065.5 36327.794C87065.5 36029.12 87307.62 35787 87606.29 35787H94144.71C94288.13 35787 94425.69 35843.978 94527.1 35945.396 94628.52 36046.814 94685.5 36184.365 94685.5 36327.794V43838.208C94685.5 44136.88 94443.378 44379 94144.71 44379H87606.29C87307.62 44379 87065.5 44136.88 87065.5 43838.208Z"/>
<text xml:space="preserve" transform="matrix(.75 0 0 .75 148.13465 41.744066)" font-size="7.1137335" font-family="MUFUZY+Arial-BoldMT" font-weight="bold"><tspan y="13.189046" x="6.0964028">h</tspan></text>
<text xml:space="preserve" transform="matrix(.75 0 0 .75 148.13465 41.744066)" font-size="4.742489" font-family="MUFUZY+Arial-BoldMT" font-weight="bold"><tspan y="15.856696" x="10.4391">5</tspan></text>
<path transform="matrix(.001968504,0,0,.001968504,-23.56594,-29.014588)" d="M141887.53 37320.146C143093.99 37320.146 144072 38298.166 144072 39504.615V63275.68C144072 63855.037 143841.85 64410.666 143432.19 64820.333 143022.52 65229.998 142466.89 65460.146 141887.53 65460.146H125352.47C124146.02 65460.146 123168 64482.126 123168 63275.68V39504.615C123168 38298.166 124146.02 37320.146 125352.47 37320.146Z" fill="#d6deea" fill-rule="evenodd"/>
<path transform="matrix(.001968504,0,0,.001968504,-23.56594,-29.014588)" stroke-width="381" stroke-linecap="butt" stroke-linejoin="round" fill="none" stroke="#000000" d="M141887.53 37320.146C143093.99 37320.146 144072 38298.166 144072 39504.615V63275.68C144072 63855.037 143841.85 64410.666 143432.19 64820.333 143022.52 65229.998 142466.89 65460.146 141887.53 65460.146H125352.47C124146.02 65460.146 123168 64482.126 123168 63275.68V39504.615C123168 38298.166 124146.02 37320.146 125352.47 37320.146Z"/>
<path transform="matrix(.001968504,0,0,.001968504,-23.56594,-29.014588)" d="M133584 33501.07V69009.07" fill-opacity="0" fill-rule="evenodd"/>
<path transform="matrix(.001968504,0,0,.001968504,-23.56594,-29.014588)" stroke-width="381" stroke-linecap="butt" stroke-linejoin="round" fill="none" stroke="#000000" d="M133584 33501.07V69009.07"/>
<path transform="matrix(.001968504,0,0,.001968504,-23.56594,-29.014588)" d="M125553.13 58625.23C125553.13 58462.96 125684.68 58331.416 125846.949 58331.416H141363.32C141441.24 58331.416 141515.97 58362.37 141571.08 58417.474 141626.17 58472.57 141657.13 58547.306 141657.13 58625.23V62177.599C141657.13 62339.869 141525.58 62471.416 141363.32 62471.416H125846.949C125684.68 62471.416 125553.13 62339.869 125553.13 62177.599Z" fill="#f3f3f3" fill-rule="evenodd"/>
<path transform="matrix(.001968504,0,0,.001968504,-23.56594,-29.014588)" stroke-width="381" stroke-linecap="butt" stroke-linejoin="round" fill="none" stroke="#000000" d="M125553.13 58625.23C125553.13 58462.96 125684.68 58331.416 125846.949 58331.416H141363.32C141441.24 58331.416 141515.97 58362.37 141571.08 58417.474 141626.17 58472.57 141657.13 58547.306 141657.13 58625.23V62177.599C141657.13 62339.869 141525.58 62471.416 141363.32 62471.416H125846.949C125684.68 62471.416 125553.13 62339.869 125553.13 62177.599Z"/>
<text xml:space="preserve" transform="matrix(.75 0 0 .75 223.75531 85.98043)" font-size="6.182667" font-family="MUFUZY+ArialMT"><tspan y="7.642563" x="12.329728 15.767291 17.139843 20.577406 24.014969 27.452532">Linear</tspan></text>
<path transform="matrix(.001968504,0,0,.001968504,-23.56594,-29.014588)" d="M127071.87 54269.26C127071.87 54140.388 127176.34 54035.916 127305.22 54035.916H139918.52C139980.4 54035.916 140039.77 54060.5 140083.52 54104.26 140127.28 54148.025 140151.86 54207.376 140151.86 54269.26V57090.564C140151.86 57219.44 140047.39 57323.916 139918.52 57323.916H127305.22C127176.34 57323.916 127071.87 57219.44 127071.87 57090.564Z" fill="#f3f3f3" fill-rule="evenodd"/>
<path transform="matrix(.001968504,0,0,.001968504,-23.56594,-29.014588)" stroke-width="381" stroke-linecap="butt" stroke-linejoin="round" fill="none" stroke="#000000" d="M127071.87 54269.26C127071.87 54140.388 127176.34 54035.916 127305.22 54035.916H139918.52C139980.4 54035.916 140039.77 54060.5 140083.52 54104.26 140127.28 54148.025 140151.86 54207.376 140151.86 54269.26V57090.564C140151.86 57219.44 140047.39 57323.916 139918.52 57323.916H127305.22C127176.34 57323.916 127071.87 57219.44 127071.87 57090.564Z"/>
<text xml:space="preserve" transform="matrix(.75 0 0 .75 226.71009 77.48987)" font-size="6.182667" font-family="MUFUZY+ArialMT"><tspan y="6.5709359" x="8.582504 13.386436 17.504094 20.941657">GELU</tspan></text>
<path transform="matrix(.001968504,0,0,.001968504,-23.56594,-29.014588)" d="M125582.7 48349.95C125582.7 48187.677 125714.25 48056.134 125876.519 48056.134H141392.89C141470.82 48056.134 141545.55 48087.087 141600.64 48142.189 141655.75 48197.29 141686.7 48272.025 141686.7 48349.95V51902.318C141686.7 52064.587 141555.16 52196.134 141392.89 52196.134H125876.519C125714.25 52196.134 125582.7 52064.587 125582.7 51902.318Z" fill="#f3f3f3" fill-rule="evenodd"/>
<path transform="matrix(.001968504,0,0,.001968504,-23.56594,-29.014588)" stroke-width="381" stroke-linecap="butt" stroke-linejoin="round" fill="none" stroke="#000000" d="M125582.7 48349.95C125582.7 48187.677 125714.25 48056.134 125876.519 48056.134H141392.89C141470.82 48056.134 141545.55 48087.087 141600.64 48142.189 141655.75 48197.29 141686.7 48272.025 141686.7 48349.95V51902.318C141686.7 52064.587 141555.16 52196.134 141392.89 52196.134H125876.519C125714.25 52196.134 125582.7 52064.587 125582.7 51902.318Z"/>
<text xml:space="preserve" transform="matrix(.75 0 0 .75 223.8135 65.753498)" font-size="6.182667" font-family="MUFUZY+ArialMT"><tspan y="7.642563" x="12.329728 15.767291 17.139843 20.577406 24.014969 27.452532">Linear</tspan></text>
<path transform="matrix(.001968504,0,0,.001968504,-23.56594,-29.014588)" d="M127043.91 40542.404C127043.91 40413.529 127148.38 40309.056 127277.26 40309.056H139890.57C139952.44 40309.056 140011.8 40333.638 140055.57 40377.4 140099.33 40421.16 140123.9 40480.517 140123.9 40542.404V43363.705C140123.9 43492.58 140019.44 43597.056 139890.57 43597.056H127277.26C127148.38 43597.056 127043.91 43492.58 127043.91 43363.705Z" fill="#f3f3f3" fill-rule="evenodd"/>
<path transform="matrix(.001968504,0,0,.001968504,-23.56594,-29.014588)" stroke-width="381" stroke-linecap="butt" stroke-linejoin="round" fill="none" stroke="#000000" d="M127043.91 40542.404C127043.91 40413.529 127148.38 40309.056 127277.26 40309.056H139890.57C139952.44 40309.056 140011.8 40333.638 140055.57 40377.4 140099.33 40421.16 140123.9 40480.517 140123.9 40542.404V43363.705C140123.9 43492.58 140019.44 43597.056 139890.57 43597.056H127277.26C127148.38 43597.056 127043.91 43492.58 127043.91 43363.705Z"/>
<text xml:space="preserve" transform="matrix(.75 0 0 .75 226.65503 50.468484)" font-size="6.182667" font-family="MUFUZY+ArialMT"><tspan y="6.5709359" x="8.582504 13.386436 17.504094 20.941657">GELU</tspan></text>
<path transform="matrix(.001968504,0,0,.001968504,-23.56594,-29.014588)" d="M132314.7 45820.92C132314.7 45115.1 132886.89 44542.92 133592.7 44542.92 133931.66 44542.92 134256.72 44677.568 134496.39 44917.24 134736.07 45156.91 134870.7 45481.978 134870.7 45820.92 134870.7 46526.744 134298.53 47098.92 133592.7 47098.92 132886.89 47098.92 132314.7 46526.744 132314.7 45820.92Z" fill="#ffffff" fill-rule="evenodd"/>
<path transform="matrix(.001968504,0,0,.001968504,-23.56594,-29.014588)" stroke-width="381" stroke-linecap="butt" stroke-linejoin="round" fill="none" stroke="#000000" d="M132314.7 45820.92C132314.7 45115.1 132886.89 44542.92 133592.7 44542.92 133931.66 44542.92 134256.72 44677.568 134496.39 44917.24 134736.07 45156.91 134870.7 45481.978 134870.7 45820.92 134870.7 46526.744 134298.53 47098.92 133592.7 47098.92 132886.89 47098.92 132314.7 46526.744 132314.7 45820.92Z"/>
<path transform="matrix(.001968504,0,0,.001968504,-23.56594,-29.014588)" d="M141887.53 84821.53C143093.99 84821.53 144072 85799.55 144072 87006V108317.06C144072 108896.42 143841.85 109452.05 143432.19 109861.71 143022.52 110271.38 142466.89 110501.53 141887.53 110501.53H125352.47C124146.02 110501.53 123168 109523.51 123168 108317.06V87006C123168 85799.55 124146.02 84821.53 125352.47 84821.53Z" fill="#d6deea" fill-rule="evenodd"/>
<path transform="matrix(.001968504,0,0,.001968504,-23.56594,-29.014588)" stroke-width="381" stroke-linecap="butt" stroke-linejoin="round" fill="none" stroke="#000000" d="M141887.53 84821.53C143093.99 84821.53 144072 85799.55 144072 87006V108317.06C144072 108896.42 143841.85 109452.05 143432.19 109861.71 143022.52 110271.38 142466.89 110501.53 141887.53 110501.53H125352.47C124146.02 110501.53 123168 109523.51 123168 108317.06V87006C123168 85799.55 124146.02 84821.53 125352.47 84821.53Z"/>
<path transform="matrix(.001968504,0,0,.001968504,-23.56594,-29.014588)" d="M133625 81671.61V113651.61" fill-opacity="0" fill-rule="evenodd"/>
<path transform="matrix(.001968504,0,0,.001968504,-23.56594,-29.014588)" stroke-width="381" stroke-linecap="butt" stroke-linejoin="round" fill="none" stroke="#000000" d="M133625 81671.61V113651.61"/>
<path transform="matrix(.001968504,0,0,.001968504,-23.56594,-29.014588)" d="M125572.63 103955.69C125572.63 103793.417 125704.18 103661.878 125866.449 103661.878H141382.82C141460.74 103661.878 141535.47 103692.83 141590.58 103747.93 141645.67 103803.03 141676.63 103877.769 141676.63 103955.69V107508.058C141676.63 107670.33 141545.08 107801.878 141382.82 107801.878H125866.449C125704.18 107801.878 125572.63 107670.33 125572.63 107508.058Z" fill="#f3f3f3" fill-rule="evenodd"/>
<path transform="matrix(.001968504,0,0,.001968504,-23.56594,-29.014588)" stroke-width="381" stroke-linecap="butt" stroke-linejoin="round" fill="none" stroke="#000000" d="M125572.63 103955.69C125572.63 103793.417 125704.18 103661.878 125866.449 103661.878H141382.82C141460.74 103661.878 141535.47 103692.83 141590.58 103747.93 141645.67 103803.03 141676.63 103877.769 141676.63 103955.69V107508.058C141676.63 107670.33 141545.08 107801.878 141382.82 107801.878H125866.449C125704.18 107801.878 125572.63 107670.33 125572.63 107508.058Z"/>
<text xml:space="preserve" transform="matrix(.75 0 0 .75 223.79367 175.21361)" font-size="6.182667" font-family="MUFUZY+ArialMT"><tspan y="7.642563" x="12.329728 15.767291 17.139843 20.577406 24.014969 27.452532">Linear</tspan></text>
<path transform="matrix(.001968504,0,0,.001968504,-23.56594,-29.014588)" d="M127091.37 99599.72C127091.37 99470.84 127195.84 99366.378 127324.72 99366.378H139938.02C139999.9 99366.378 140059.27 99390.95 140103.02 99434.72 140146.78 99478.48 140171.36 99537.839 140171.36 99599.72V102421.02C140171.36 102549.9 140066.89 102654.378 139938.02 102654.378H127324.72C127195.84 102654.378 127091.37 102549.9 127091.37 102421.02Z" fill="#f3f3f3" fill-rule="evenodd"/>
<path transform="matrix(.001968504,0,0,.001968504,-23.56594,-29.014588)" stroke-width="381" stroke-linecap="butt" stroke-linejoin="round" fill="none" stroke="#000000" d="M127091.37 99599.72C127091.37 99470.84 127195.84 99366.378 127324.72 99366.378H139938.02C139999.9 99366.378 140059.27 99390.95 140103.02 99434.72 140146.78 99478.48 140171.36 99537.839 140171.36 99599.72V102421.02C140171.36 102549.9 140066.89 102654.378 139938.02 102654.378H127324.72C127195.84 102654.378 127091.37 102549.9 127091.37 102421.02Z"/>
<text xml:space="preserve" transform="matrix(.75 0 0 .75 226.74845 166.72306)" font-size="6.182667" font-family="MUFUZY+ArialMT"><tspan y="6.5709359" x="8.582504 13.386436 17.504094 20.941657">GELU</tspan></text>
<path transform="matrix(.001968504,0,0,.001968504,-23.56594,-29.014588)" d="M125578.61 91042.61C125578.61 90880.339 125710.16 90748.8 125872.42 90748.8H141388.8C141466.72 90748.8 141541.46 90779.75 141596.55 90834.85 141651.66 90889.95 141682.61 90964.69 141682.61 91042.61V94594.98C141682.61 94757.25 141551.07 94888.8 141388.8 94888.8H125872.42C125710.16 94888.8 125578.61 94757.25 125578.61 94594.98Z" fill="#f3f3f3" fill-rule="evenodd"/>
<path transform="matrix(.001968504,0,0,.001968504,-23.56594,-29.014588)" stroke-width="381" stroke-linecap="butt" stroke-linejoin="round" fill="none" stroke="#000000" d="M125578.61 91042.61C125578.61 90880.339 125710.16 90748.8 125872.42 90748.8H141388.8C141466.72 90748.8 141541.46 90779.75 141596.55 90834.85 141651.66 90889.95 141682.61 90964.69 141682.61 91042.61V94594.98C141682.61 94757.25 141551.07 94888.8 141388.8 94888.8H125872.42C125710.16 94888.8 125578.61 94757.25 125578.61 94594.98Z"/>
<text xml:space="preserve" transform="matrix(.75 0 0 .75 223.80545 149.79418)" font-size="6.182667" font-family="MUFUZY+ArialMT"><tspan y="7.642563" x="12.329728 15.767291 17.139843 20.577406 24.014969 27.452532">Linear</tspan></text>
<path transform="matrix(.001968504,0,0,.001968504,-23.56594,-29.014588)" d="M132315.7 88493.38C132315.7 87787.56 132887.89 87215.38 133593.7 87215.38 133932.66 87215.38 134257.72 87350.02 134497.39 87589.699 134737.07 87829.37 134871.7 88154.43 134871.7 88493.38 134871.7 89199.2 134299.53 89771.38 133593.7 89771.38 132887.89 89771.38 132315.7 89199.2 132315.7 88493.38Z" fill="#ffffff" fill-rule="evenodd"/>
<path transform="matrix(.001968504,0,0,.001968504,-23.56594,-29.014588)" stroke-width="381" stroke-linecap="butt" stroke-linejoin="round" fill="none" stroke="#000000" d="M132315.7 88493.38C132315.7 87787.56 132887.89 87215.38 133593.7 87215.38 133932.66 87215.38 134257.72 87350.02 134497.39 87589.699 134737.07 87829.37 134871.7 88154.43 134871.7 88493.38 134871.7 89199.2 134299.53 89771.38 133593.7 89771.38 132887.89 89771.38 132315.7 89199.2 132315.7 88493.38Z"/>
<path transform="matrix(.001968504,0,0,.001968504,-23.56594,-29.014588)" d="M132315.7 97081.38C132315.7 96375.56 132887.89 95803.38 133593.7 95803.38 133932.66 95803.38 134257.72 95938.02 134497.39 96177.699 134737.07 96417.37 134871.7 96742.43 134871.7 97081.38 134871.7 97787.2 134299.53 98359.38 133593.7 98359.38 132887.89 98359.38 132315.7 97787.2 132315.7 97081.38Z" fill="#ffffff" fill-rule="evenodd"/>
<path transform="matrix(.001968504,0,0,.001968504,-23.56594,-29.014588)" stroke-width="381" stroke-linecap="butt" stroke-linejoin="round" fill="none" stroke="#000000" d="M132315.7 97081.38C132315.7 96375.56 132887.89 95803.38 133593.7 95803.38 133932.66 95803.38 134257.72 95938.02 134497.39 96177.699 134737.07 96417.37 134871.7 96742.43 134871.7 97081.38 134871.7 97787.2 134299.53 98359.38 133593.7 98359.38 132887.89 98359.38 132315.7 97787.2 132315.7 97081.38Z"/>
<path transform="matrix(.001968504,0,0,.001968504,-23.56594,-29.014588)" d="M92404 56386H123592" fill-opacity="0" fill-rule="evenodd"/>
<path transform="matrix(.001968504,0,0,.001968504,-23.56594,-29.014588)" stroke-width="381" stroke-linecap="butt" stroke-dasharray="381,1143" stroke-linejoin="round" fill="none" stroke="#000000" d="M93709.72 56386H123592"/>
<path transform="matrix(.001968504,0,0,.001968504,-23.56594,-29.014588)" d="M93709.72 56386 94138.19 55957.537 92960.988 56386 94138.19 56814.466Z" fill-rule="evenodd"/>
<path transform="matrix(.001968504,0,0,.001968504,-23.56594,-29.014588)" stroke-width="381" stroke-linecap="butt" stroke-miterlimit="10" stroke-linejoin="miter" fill="none" stroke="#000000" d="M93709.72 56386 94138.19 55957.537 92960.988 56386 94138.19 56814.466Z"/>
<path transform="matrix(.001968504,0,0,.001968504,-23.56594,-29.014588)" d="M13906.889 175843.38C13906.889 174617.32 14900.816 173623.38 16126.889 173623.38 16715.67 173623.38 17280.336 173857.27 17696.666 174273.61 18112.997 174689.94 18346.889 175254.6 18346.889 175843.38 18346.889 177069.46 17352.96 178063.38 16126.889 178063.38 14900.816 178063.38 13906.889 177069.46 13906.889 175843.38Z" fill="#ffffff" fill-rule="evenodd"/>
<path transform="matrix(.001968504,0,0,.001968504,-23.56594,-29.014588)" stroke-width="381" stroke-linecap="butt" stroke-linejoin="round" fill="none" stroke="#000000" d="M13906.889 175843.38C13906.889 174617.32 14900.816 173623.38 16126.889 173623.38 16715.67 173623.38 17280.336 173857.27 17696.666 174273.61 18112.997 174689.94 18346.889 175254.6 18346.889 175843.38 18346.889 177069.46 17352.96 178063.38 16126.889 178063.38 14900.816 178063.38 13906.889 177069.46 13906.889 175843.38Z"/>
<path transform="matrix(.001968504,0,0,.001968504,-23.56594,-29.014588)" d="M13907.036 166963.96C13907.036 165737.89 14900.953 164743.97 16127.012 164743.97 16715.788 164743.97 17280.446 164977.86 17696.772 165394.19 18113.098 165810.52 18346.989 166375.17 18346.989 166963.96 18346.989 168190.02 17353.07 169183.92 16127.012 169183.92 14900.953 169183.92 13907.036 168190.02 13907.036 166963.96Z" fill="#ffffff" fill-rule="evenodd"/>
<path transform="matrix(.001968504,0,0,.001968504,-23.56594,-29.014588)" stroke-width="381" stroke-linecap="butt" stroke-linejoin="round" fill="none" stroke="#000000" d="M13907.036 166963.96C13907.036 165737.89 14900.953 164743.97 16127.012 164743.97 16715.788 164743.97 17280.446 164977.86 17696.772 165394.19 18113.098 165810.52 18346.989 166375.17 18346.989 166963.96 18346.989 168190.02 17353.07 169183.92 16127.012 169183.92 14900.953 169183.92 13907.036 168190.02 13907.036 166963.96Z"/>
<path transform="matrix(.001968504,0,0,.001968504,-23.56594,-29.014588)" d="M17560.975 166963.96H14695.1879" fill-opacity="0" fill-rule="evenodd"/>
<path transform="matrix(.001968504,0,0,.001968504,-23.56594,-29.014588)" stroke-width="381" stroke-linecap="butt" stroke-linejoin="round" fill="none" stroke="#000000" d="M17560.975 166963.96H14695.1879"/>
<path transform="matrix(.001968504,0,0,.001968504,-23.56594,-29.014588)" d="M16127.012 165529.99V168395.78" fill-opacity="0" fill-rule="evenodd"/>
<path transform="matrix(.001968504,0,0,.001968504,-23.56594,-29.014588)" stroke-width="381" stroke-linecap="butt" stroke-linejoin="round" fill="none" stroke="#000000" d="M16127.012 165529.99V168395.78"/>
<path transform="matrix(.001968504,0,0,.001968504,-23.56594,-29.014588)" d="M18346.303 173623.28H43258.306V178063.28H18346.303Z" fill-opacity="0" fill-rule="evenodd"/>
<text xml:space="preserve" transform="matrix(.75 0 0 .75 12.548828 312.76353)" font-size="8" font-family="MUFUZY+STIXTwoText-Regular"><tspan y="8.506771" x="9 14.84 17.800002 21.912 26.208 30.32 34.88">Dropout</tspan></text>
<path transform="matrix(.001968504,0,0,.001968504,-23.56594,-29.014588)" d="M18346.692 164743.5H43258.69V169183.5H18346.692Z" fill-opacity="0" fill-rule="evenodd"/>
<text xml:space="preserve" transform="matrix(.75 0 0 .75 12.549591 295.28364)" font-size="8" font-family="MUFUZY+STIXTwoText-Regular"><tspan y="8.506771" x="9 14.360001 18.472 23.08 26.648 30.488">Concat</tspan></text>
<path transform="matrix(.001968504,0,0,.001968504,-23.56594,-29.014588)" d="M127127.6 132100.19C127127.6 128514.76 130034.167 125608.19 133619.6 125608.19 135341.39 125608.19 136992.66 126292.167 138210.14 127509.65 139427.63 128727.14 140111.6 130378.41 140111.6 132100.19 140111.6 135685.63 137205.03 138592.19 133619.6 138592.19 130034.167 138592.19 127127.6 135685.63 127127.6 132100.19Z" fill="#ffffff" fill-rule="evenodd"/>
<path transform="matrix(.001968504,0,0,.001968504,-23.56594,-29.014588)" stroke-width="381" stroke-linecap="butt" stroke-linejoin="round" fill="none" stroke="#000000" d="M127127.6 132100.19C127127.6 128514.76 130034.167 125608.19 133619.6 125608.19 135341.39 125608.19 136992.66 126292.167 138210.14 127509.65 139427.63 128727.14 140111.6 130378.41 140111.6 132100.19 140111.6 135685.63 137205.03 138592.19 133619.6 138592.19 130034.167 138592.19 127127.6 135685.63 127127.6 132100.19Z"/>
<path transform="matrix(.001968504,0,0,.001968504,-23.56594,-29.014588)" d="M129833.55 129576.21C129833.55 128879.22 130398.57 128314.19 131095.57 128314.19H136143.52C136478.24 128314.19 136799.24 128447.15 137035.9 128683.83 137272.58 128920.5 137405.55 129241.5 137405.55 129576.21V134624.16C137405.55 135321.16 136840.52 135886.19 136143.52 135886.19H131095.57C130398.57 135886.19 129833.55 135321.16 129833.55 134624.16Z" fill-opacity="0" fill-rule="evenodd"/>
<path transform="matrix(.001968504,0,0,.001968504,-23.56594,-29.014588)" d="M131095.57 135886.19C130398.57 135886.19 129833.55 135321.16 129833.55 134624.16V129576.21C129833.55 128879.22 130398.57 128314.19 131095.57 128314.19M136143.52 128314.19C136478.24 128314.19 136799.24 128447.15 137035.9 128683.83 137272.58 128920.5 137405.55 129241.5 137405.55 129576.21V134624.16C137405.55 135321.16 136840.52 135886.19 136143.52 135886.19" fill-opacity="0" fill-rule="evenodd"/>
<path transform="matrix(.001968504,0,0,.001968504,-23.56594,-29.014588)" stroke-width="381" stroke-linecap="butt" stroke-linejoin="round" fill="none" stroke="#000000" d="M131095.57 135886.19C130398.57 135886.19 129833.55 135321.16 129833.55 134624.16V129576.21C129833.55 128879.22 130398.57 128314.19 131095.57 128314.19M136143.52 128314.19C136478.24 128314.19 136799.24 128447.15 137035.9 128683.83 137272.58 128920.5 137405.55 129241.5 137405.55 129576.21V134624.16C137405.55 135321.16 136840.52 135886.19 136143.52 135886.19"/>
<path transform="matrix(.001968504,0,0,.001968504,-23.56594,-29.014588)" d="M131409.57 130780.18C131409.57 130485.26 131648.64 130246.18 131943.57 130246.18 132085.19 130246.18 132221 130302.449 132321.16 130402.589 132421.3 130502.738 132477.57 130638.558 132477.57 130780.18 132477.57 131075.11 132238.47 131314.19 131943.57 131314.19 131648.64 131314.19 131409.57 131075.11 131409.57 130780.18Z" fill-rule="evenodd"/>
<path transform="matrix(.001968504,0,0,.001968504,-23.56594,-29.014588)" d="M134760.57 130780.18C134760.57 130485.26 134999.64 130246.18 135294.57 130246.18 135436.19 130246.18 135572 130302.449 135672.16 130402.589 135772.3 130502.738 135828.57 130638.558 135828.57 130780.18 135828.57 131075.11 135589.47 131314.19 135294.57 131314.19 134999.64 131314.19 134760.57 131075.11 134760.57 130780.18Z" fill-rule="evenodd"/>
<path transform="matrix(.001968504,0,0,.001968504,-23.56594,-29.014588)" d="M131409.57 133421.19C131409.57 133126.27 131648.64 132887.19 131943.57 132887.19 132085.19 132887.19 132221 132943.44 132321.16 133043.6 132421.3 133143.74 132477.57 133279.57 132477.57 133421.19 132477.57 133716.11 132238.47 133955.19 131943.57 133955.19 131648.64 133955.19 131409.57 133716.11 131409.57 133421.19Z" fill-rule="evenodd"/>
<path transform="matrix(.001968504,0,0,.001968504,-23.56594,-29.014588)" d="M134760.57 133421.19C134760.57 133126.27 134999.64 132887.19 135294.57 132887.19 135436.19 132887.19 135572 132943.44 135672.16 133043.6 135772.3 133143.74 135828.57 133279.57 135828.57 133421.19 135828.57 133716.11 135589.47 133955.19 135294.57 133955.19 134999.64 133955.19 134760.57 133716.11 134760.57 133421.19Z" fill-rule="evenodd"/>
<path transform="matrix(.001968504,0,0,.001968504,-23.56594,-29.014588)" d="M69691.04 184621.16H80227.04V195181.16H69691.04Z" fill-opacity="0" fill-rule="evenodd"/>
<text xml:space="preserve" transform="matrix(.75 0 0 .75 113.62113 334.4129)" font-size="18.666666" font-family="MUFUZY+STIXTwoText-Bold" font-weight="bold"><tspan y="20.578267" x="9.74708">x</tspan></text>
<path transform="matrix(.001968504,0,0,.001968504,-23.56594,-29.014588)" d="M121163.83 137544H146075.83V152784H121163.83Z" fill-opacity="0" fill-rule="evenodd"/>
<text xml:space="preserve" transform="matrix(.75 0 0 .75 214.94556 241.74134)" font-size="9.946133" font-family="MUFUZY+STIXTwoText-Regular"><tspan y="14.845249" x="21.001477 27.416733 32.529047 38.188394 44.414674">RoPE </tspan></text>
<text xml:space="preserve" transform="matrix(.75 0 0 .75 214.94556 241.74134)" font-size="7.2794668" font-family="MUFUZY+STIXTwoText-Regular"><tspan y="24.220608" x="24.02145 28.818619 33.31733 35.028005 38.52215 41.397539">RB as </tspan></text>
<text xml:space="preserve" transform="matrix(.75 0 0 .75 214.94556 241.74134)" font-size="7.2794668" font-family="MUFUZY+STIXTwoText-Regular"><tspan y="32.955968" x="20.265156 24.174229 27.915875 30.791264 32.865915 35.158948 37.233598 40.975244">position</tspan></text>
<path transform="matrix(.001968504,0,0,.001968504,-23.56594,-29.014588)" d="M68298.67 121647.18C68298.67 121277.14 68598.65 120977.167 68968.69 120977.167H81848.667C82026.36 120977.167 82196.78 121047.76 82322.43 121173.41 82448.089 121299.058 82518.67 121469.48 82518.67 121647.18V124327.15C82518.67 124697.19 82218.7 124997.167 81848.667 124997.167H68968.69C68598.65 124997.167 68298.67 124697.19 68298.67 124327.15Z" fill="#ffffff" fill-rule="evenodd"/>
<path transform="matrix(.001968504,0,0,.001968504,-23.56594,-29.014588)" stroke-width="381" stroke-linecap="butt" stroke-linejoin="round" fill="none" stroke="#000000" d="M68298.67 121647.18C68298.67 121277.14 68598.65 120977.167 68968.69 120977.167H81848.667C82026.36 120977.167 82196.78 121047.76 82322.43 121173.41 82448.089 121299.058 82518.67 121469.48 82518.67 121647.18V124327.15C82518.67 124697.19 82218.7 124997.167 81848.667 124997.167H68968.69C68598.65 124997.167 68298.67 124697.19 68298.67 124327.15Z"/>
<text xml:space="preserve" transform="matrix(.75 0 0 .75 111.26658 209.51575)" font-size="5.553867" font-family="MUFUZY+ArialMT"><tspan y="6.5922367" x="13.211575 16.91045 19.9984">Add</tspan></text>
<path transform="matrix(.001968504,0,0,.001968504,-23.56594,-29.014588)" d="M104394 158511.32H118590V170055.32H104394Z" fill-opacity="0" fill-rule="evenodd"/>
<text xml:space="preserve" transform="matrix(.75 0 0 .75 181.93405 283.01557)" font-size="10.666667" font-family="MUFUZY+FreeSerif"><tspan y="18.989607" x="12.571053">&#x1d6fe;</tspan></text>
<text xml:space="preserve" transform="matrix(.75 0 0 .75 181.93405 283.01557)" font-size="10.666667" font-family="MUFUZY+FreeSerif"><tspan y="18.989607" x="12.571053">&#x1d6fe;</tspan></text>
<text xml:space="preserve" transform="matrix(.75 0 0 .75 181.93405 283.01557)" font-size="10.666667" font-family="MUFUZY+Arial-BoldMT" font-weight="bold"><tspan y="18.989607" x="18.18473">&#x03b2;</tspan></text>
<path transform="matrix(.001968504,0,0,.001968504,-23.56594,-29.014588)" d="M92571.839 98687.199H122955.839" fill-opacity="0" fill-rule="evenodd"/>
<path transform="matrix(.001968504,0,0,.001968504,-23.56594,-29.014588)" stroke-width="381" stroke-linecap="butt" stroke-dasharray="381,1143" stroke-linejoin="round" fill="none" stroke="#000000" d="M93877.558 98687.199H122955.839"/>
<path transform="matrix(.001968504,0,0,.001968504,-23.56594,-29.014588)" d="M93877.558 98687.199 94306.02 98258.73 93128.82 98687.199 94306.02 99115.667Z" fill-rule="evenodd"/>
<path transform="matrix(.001968504,0,0,.001968504,-23.56594,-29.014588)" stroke-width="381" stroke-linecap="butt" stroke-miterlimit="10" stroke-linejoin="miter" fill="none" stroke="#000000" d="M93877.558 98687.199 94306.02 98258.73 93128.82 98687.199 94306.02 99115.667Z"/>
<path transform="matrix(.001968504,0,0,.001968504,-23.56594,-29.014588)" d="M84457 108852H111493V158508" fill-opacity="0" fill-rule="evenodd"/>
<path transform="matrix(.001968504,0,0,.001968504,-23.56594,-29.014588)" stroke-width="381" stroke-linecap="butt" stroke-linejoin="round" fill="none" stroke="#000000" d="M84457 108852H111493V158508"/>
<path transform="matrix(.001968504,0,0,.001968504,-23.56594,-29.014588)" d="M111492 158511.32V142311.32H84564" fill-opacity="0" fill-rule="evenodd"/>
<path transform="matrix(.001968504,0,0,.001968504,-23.56594,-29.014588)" stroke-width="381" stroke-linecap="butt" stroke-linejoin="round" fill="none" stroke="#000000" d="M111492 158511.32V142311.32H84564"/>
<path transform="matrix(.001968504,0,0,.001968504,-23.56594,-29.014588)" d="M108810.31 176547.88 77418.31 176559.88" fill-opacity="0" fill-rule="evenodd"/>
<path transform="matrix(.001968504,0,0,.001968504,-23.56594,-29.014588)" stroke-width="711" stroke-linecap="butt" stroke-linejoin="round" fill="none" stroke="#000000" d="M108810.31 176547.88 77418.31 176559.88"/>
<path transform="matrix(.001968504,0,0,.001968504,-23.56594,-29.014588)" d="M92638.839 132100.19H127126.839" fill-opacity="0" fill-rule="evenodd"/>
<path transform="matrix(.001968504,0,0,.001968504,-23.56594,-29.014588)" stroke-width="381" stroke-linecap="butt" stroke-dasharray="381,1143" stroke-linejoin="round" fill="none" stroke="#000000" d="M93944.558 132100.19H127126.839"/>
<path transform="matrix(.001968504,0,0,.001968504,-23.56594,-29.014588)" d="M93944.558 132100.19 94373.02 131671.72 93195.82 132100.19 94373.02 132528.66Z" fill-rule="evenodd"/>
<path transform="matrix(.001968504,0,0,.001968504,-23.56594,-29.014588)" stroke-width="381" stroke-linecap="butt" stroke-miterlimit="10" stroke-linejoin="miter" fill="none" stroke="#000000" d="M93944.558 132100.19 94373.02 131671.72 93195.82 132100.19 94373.02 132528.66Z"/>
<path transform="matrix(.001968504,0,0,.001968504,-23.56594,-29.014588)" d="M14788.696 181623.47 17464.696 182888.16V187102.8L14788.696 188367.47Z" fill="#d6deea" fill-rule="evenodd"/>
<path transform="matrix(.001968504,0,0,.001968504,-23.56594,-29.014588)" stroke-width="381" stroke-linecap="butt" stroke-linejoin="round" fill="none" stroke="#000000" d="M14788.696 181623.47 17464.696 182888.16V187102.8L14788.696 188367.47Z"/>
<path transform="matrix(.001968504,0,0,.001968504,-23.56594,-29.014588)" d="M18346.303 182775.28H43258.306V187215.28H18346.303Z" fill-opacity="0" fill-rule="evenodd"/>
<text xml:space="preserve" transform="matrix(.75 0 0 .75 12.548828 330.77928)" font-size="8" font-family="MUFUZY+STIXTwoText-Regular"><tspan y="8.506771" x="9 14.008 18.616002 22.184002 26.296002 30.608002 34.320005">Encoder</tspan></text>
<path transform="matrix(.001968504,0,0,.001968504,-23.56594,-29.014588)" d="M65377 166947.69C65377 166737.44 65547.44 166567 65757.68 166567H86692.32C86793.28 166567 86890.11 166607.11 86961.5 166678.5 87032.89 166749.89 87073 166846.72 87073 166947.69V171550.32C87073 171760.57 86902.56 171931 86692.32 171931H65757.68C65547.44 171931 65377 171760.57 65377 171550.32Z" fill="#f3f3f3" fill-rule="evenodd"/>
<path transform="matrix(.001968504,0,0,.001968504,-23.56594,-29.014588)" stroke-width="381" stroke-linecap="butt" stroke-linejoin="round" fill="none" stroke="#000000" d="M65377 166947.69C65377 166737.44 65547.44 166567 65757.68 166567H86692.32C86793.28 166567 86890.11 166607.11 86961.5 166678.5 87032.89 166749.89 87073 166846.72 87073 166947.69V171550.32C87073 171760.57 86902.56 171931 86692.32 171931H65757.68C65547.44 171931 65377 171760.57 65377 171550.32Z"/>
<text xml:space="preserve" transform="matrix(.75 0 0 .75 105.34843 299.0927)" font-size="8" font-family="MUFUZY+ArialMT"><tspan y="9.4267239" x="17.060654 21.508654 23.284655 27.732655 32.180658 36.62866">Linear</tspan></text>
<path transform="matrix(.001968504,0,0,.001968504,-23.56594,-29.014588)" d="M73396.43 176560.07C73396.43 175448.77 74297.33 174547.86 75408.64 174547.86 75942.31 174547.86 76454.128 174759.86 76831.488 175137.22 77208.85 175514.6 77420.85 176026.4 77420.85 176560.07 77420.85 177671.38 76519.95 178572.28 75408.64 178572.28 74297.33 178572.28 73396.43 177671.38 73396.43 176560.07Z" fill="#ffffff" fill-rule="evenodd"/>
<path transform="matrix(.001968504,0,0,.001968504,-23.56594,-29.014588)" stroke-width="381" stroke-linecap="butt" stroke-linejoin="round" fill="none" stroke="#000000" d="M73396.43 176560.07C73396.43 175448.77 74297.33 174547.86 75408.64 174547.86 75942.31 174547.86 76454.128 174759.86 76831.488 175137.22 77208.85 175514.6 77420.85 176026.4 77420.85 176560.07 77420.85 177671.38 76519.95 178572.28 75408.64 178572.28 74297.33 178572.28 73396.43 177671.38 73396.43 176560.07Z"/>
<path transform="matrix(.001968504,0,0,.001968504,-23.56594,-29.014588)" d="M76708.4 176560.07H74110.82" fill-opacity="0" fill-rule="evenodd"/>
<path transform="matrix(.001968504,0,0,.001968504,-23.56594,-29.014588)" stroke-width="381" stroke-linecap="butt" stroke-linejoin="round" fill="none" stroke="#000000" d="M76708.4 176560.07H74110.82"/>
<path transform="matrix(.001968504,0,0,.001968504,-23.56594,-29.014588)" d="M75408.64 175260.32V177857.89" fill-opacity="0" fill-rule="evenodd"/>
<path transform="matrix(.001968504,0,0,.001968504,-23.56594,-29.014588)" stroke-width="381" stroke-linecap="butt" stroke-linejoin="round" fill="none" stroke="#000000" d="M75408.64 175260.32V177857.89"/>
<path transform="matrix(.001968504,0,0,.001968504,-23.56594,-29.014588)" d="M67411.36 12767.332H82507.36V23327.333H67411.36Z" fill-opacity="0" fill-rule="evenodd"/>
<text xml:space="preserve" transform="matrix(.75 0 0 .75 109.13358 -3.882042)" font-size="18.666666" font-family="MUFUZY+STIXTwoText-Bold" font-weight="bold"><tspan y="20.578267" x="14.857792">x</tspan></text>
<path transform="matrix(.001968504,0,0,.001968504,-23.56594,-29.014588)" d="M67411.36 10111.89H82507.36V20671.89H67411.36Z" fill-opacity="0" fill-rule="evenodd"/>
<text xml:space="preserve" transform="matrix(.75 0 0 .75 109.13358 -9.109291)" font-size="18.666666" font-family="MUFUZY+STIXTwoText-Regular"><tspan y="20.578267" x="14.615253">~</tspan></text>
<path transform="matrix(.001968504,0,0,.001968504,-23.56594,-29.014588)" d="M67696.36 70051.558H82792.36V80611.558H67696.36Z" fill-opacity="0" fill-rule="evenodd"/>
<text xml:space="preserve" transform="matrix(.75 0 0 .75 109.6946 108.88217)" font-size="18.666666" font-family="MUFUZY+STIXTwoText-Bold" font-weight="bold"><tspan y="20.578267" x="15.1936">z</tspan></text>
<path transform="matrix(.001968504,0,0,.001968504,-23.56594,-29.014588)" d="M67696.36 67396.12H82792.36V77956.12H67696.36Z" fill-opacity="0" fill-rule="evenodd"/>
<text xml:space="preserve" transform="matrix(.75 0 0 .75 109.6946 103.65492)" font-size="18.666666" font-family="MUFUZY+STIXTwoText-Regular"><tspan y="20.578267" x="14.615253">~</tspan></text>
<path transform="matrix(.001968504,0,0,.001968504,-23.56594,-29.014588)" d="M57975.84 94787.238C57975.84 93710.26 58848.9 92837.199 59925.88 92837.199H90621.8C91138.988 92837.199 91634.988 93042.64 92000.69 93408.34 92366.39 93774.05 92571.839 94270.05 92571.839 94787.238V102587.16C92571.839 103664.13 91698.77 104537.199 90621.8 104537.199H59925.88C58848.9 104537.199 57975.84 103664.13 57975.84 102587.16Z" fill="#d6deea" fill-rule="evenodd"/>
<path transform="matrix(.001968504,0,0,.001968504,-23.56594,-29.014588)" stroke-width="381" stroke-linecap="butt" stroke-linejoin="round" fill="none" stroke="#000000" d="M57975.84 94787.238C57975.84 93710.26 58848.9 92837.199 59925.88 92837.199H90621.8C91138.988 92837.199 91634.988 93042.64 92000.69 93408.34 92366.39 93774.05 92571.839 94270.05 92571.839 94787.238V102587.16C92571.839 103664.13 91698.77 104537.199 90621.8 104537.199H59925.88C58848.9 104537.199 57975.84 103664.13 57975.84 102587.16Z"/>
<text xml:space="preserve" transform="matrix(.75 0 0 .75 91.68403 154.86009)" font-size="9.553867" font-family="MUFUZY+ArialMT"><tspan y="17.52697" x="34.623655 40.45151 46.27937">FFN</tspan></text>
<path transform="matrix(.001968504,0,0,.001968504,-23.56594,-29.014588)" d="M65929 106896.02C65929 106355.878 66366.878 105918 66907.019 105918H83478.98C83738.37 105918 83987.13 106021.04 84170.55 106204.45 84353.96 106387.87 84457 106636.63 84457 106896.02V110807.98C84457 111348.128 84019.128 111786 83478.98 111786H66907.019C66366.878 111786 65929 111348.128 65929 110807.98Z" fill="#f3f3f3" fill-rule="evenodd"/>
<path transform="matrix(.001968504,0,0,.001968504,-23.56594,-29.014588)" stroke-width="381" stroke-linecap="butt" stroke-linejoin="round" fill="none" stroke="#000000" d="M65929 106896.02C65929 106355.878 66366.878 105918 66907.019 105918H83478.98C83738.37 105918 83987.13 106021.04 84170.55 106204.45 84353.96 106387.87 84457 106636.63 84457 106896.02V110807.98C84457 111348.128 84019.128 111786 83478.98 111786H66907.019C66366.878 111786 65929 111348.128 65929 110807.98Z"/>
<text xml:space="preserve" transform="matrix(.75 0 0 .75 106.77944 180.04929)" font-size="5.553867" font-family="MUFUZY+ArialMT"><tspan y="8.780657" x="7.2298738 11.239765 14.327715 16.177153 20.803524 22.341946 26.040822 27.579243 30.967103 32.20006 35.288015">Norm &#x0026; FiLM</tspan></text>
<path transform="matrix(.001968504,0,0,.001968504,-23.56594,-29.014588)" d="M68231.67 88105.18C68231.67 87735.14 68531.65 87435.167 68901.69 87435.167H81781.667C81959.36 87435.167 82129.78 87505.76 82255.43 87631.41 82381.089 87757.058 82451.67 87927.48 82451.67 88105.18V90785.15C82451.67 91155.19 82151.7 91455.167 81781.667 91455.167H68901.69C68531.65 91455.167 68231.67 91155.19 68231.67 90785.15Z" fill="#ffffff" fill-rule="evenodd"/>
<path transform="matrix(.001968504,0,0,.001968504,-23.56594,-29.014588)" stroke-width="381" stroke-linecap="butt" stroke-linejoin="round" fill="none" stroke="#000000" d="M68231.67 88105.18C68231.67 87735.14 68531.65 87435.167 68901.69 87435.167H81781.667C81959.36 87435.167 82129.78 87505.76 82255.43 87631.41 82381.089 87757.058 82451.67 87927.48 82451.67 88105.18V90785.15C82451.67 91155.19 82151.7 91455.167 81781.667 91455.167H68901.69C68531.65 91455.167 68231.67 91155.19 68231.67 90785.15Z"/>
<text xml:space="preserve" transform="matrix(.75 0 0 .75 111.13468 143.48819)" font-size="5.553867" font-family="MUFUZY+ArialMT"><tspan y="6.5922367" x="13.211575 16.91045 19.9984">Add</tspan></text>
<path transform="matrix(.001968504,0,0,.001968504,-23.56594,-29.014588)" d="M66041 140358.52C66041 139818.38 66478.878 139380.5 67019.019 139380.5H83590.98C83850.37 139380.5 84099.13 139483.55 84282.55 139666.96 84465.96 139850.38 84569 140099.13 84569 140358.52V144270.49C84569 144810.63 84131.128 145248.5 83590.98 145248.5H67019.019C66478.878 145248.5 66041 144810.63 66041 144270.49Z" fill="#f3f3f3" fill-rule="evenodd"/>
<path transform="matrix(.001968504,0,0,.001968504,-23.56594,-29.014588)" stroke-width="381" stroke-linecap="butt" stroke-linejoin="round" fill="none" stroke="#000000" d="M66041 140358.52C66041 139818.38 66478.878 139380.5 67019.019 139380.5H83590.98C83850.37 139380.5 84099.13 139483.55 84282.55 139666.96 84465.96 139850.38 84569 140099.13 84569 140358.52V144270.49C84569 144810.63 84131.128 145248.5 83590.98 145248.5H67019.019C66478.878 145248.5 66041 144810.63 66041 144270.49Z"/>
<text xml:space="preserve" transform="matrix(.75 0 0 .75 106.999919 245.92035)" font-size="5.553867" font-family="MUFUZY+ArialMT"><tspan y="8.780657" x="7.2298738 11.239765 14.327715 16.177153 20.803524 22.341946 26.040822 27.579243 30.967103 32.20006 35.288015">Norm &#x0026; FiLM</tspan></text>
</g>
</g>
</g>
</svg>
