<svg xmlns="http://www.w3.org/2000/svg" xmlns:xlink="http://www.w3.org/1999/xlink" xmlns:inkscape="http://www.inkscape.org/namespaces/inkscape" version="1.1" width="423.2821" height="230.50489" viewBox="0 0 423.2821 230.50489">
<defs>
<clipPath id="clip_1">
<path transform="matrix(1,0,0,-1,-34.84709,373.7541)" d="M34.84709 143.2492H458.1292V373.7541H34.84709Z" clip-rule="evenodd"/>
</clipPath>
<clipPath id="clip_2">
<path transform="matrix(.001968504,0,0,.001968504,-34.84709,-76.24591)" d="M0 0H304800V228600H0V0Z"/>
</clipPath>
</defs>
<g>
<g clip-path="url(#clip_1)">
<g clip-path="url(#clip_2)">
<path transform="matrix(.001968504,0,0,.001968504,-34.84709,-76.24591)" d="M0 0H304800V228600H0Z" fill-opacity="0" fill-rule="evenodd"/>
<path transform="matrix(.001968504,0,0,.001968504,-34.84709,-76.24591)" d="M18984.483 118903.339H72324.488V154723.35H18984.483Z" fill="#f3f3f3" fill-rule="evenodd"/>
<path transform="matrix(.001968504,0,0,.001968504,-34.84709,-76.24591)" stroke-width="381" stroke-linecap="butt" stroke-linejoin="round" fill="none" stroke="#000000" d="M18984.483 118903.339H72324.488V154723.35H18984.483Z"/>
<text xml:space="preserve" transform="matrix(.75 0 0 .75 2.5239373 157.81577)" font-size="13.104933" font-family="MUFUZY+STIXTwoText-Regular"><tspan y="27.580735" x="15 23.780304 30.38519 35.063653 38.14331 44.433679 50.278478 57.106149 64.57596 68.31087 73.48732 77.22223 81.35028 85.08519 91.82112 99.36956 102.44922 108.739589 112.86764">CSI acquisition at </tspan></text>
<text xml:space="preserve" transform="matrix(.75 0 0 .75 2.5239373 157.81577)" font-size="13.104933" font-family="MUFUZY+STIXTwoText-Regular"><tspan y="43.580736" x="15 23.63615 31.735 34.81466 38.942716 43.726015 50.01638 57.564825 62.741273 73.90668 77.64159 81.76964 84.8493 91.88664 98.622577 108.38575 114.46644 119.44631">RB transmit power </tspan></text>
<text xml:space="preserve" transform="matrix(.75 0 0 .75 2.5239373 157.81577)" font-size="13.104933" font-family="MUFUZY+STIXTwoText-Regular"><tspan y="59.580736" x="15 21.486943 24.304503 36.41346 39.49312 43.516336 48.378267 55.1142 66.2796 69.35926 76.81596 80.55087 84.25957 90.9955 94.80903 99.31712 108.09743 114.70232 119.380779">4 W from Pilot-CSI </tspan></text>
<text xml:space="preserve" transform="matrix(.75 0 0 .75 2.5239373 157.81577)" font-size="13.104933" font-family="MUFUZY+STIXTwoText-Regular"><tspan y="75.580738" x="15 20.962744 27.122063 32.96686 40.528409 46.818777 54.367219 60.76243 66.84312">exchange.</tspan></text>
<path transform="matrix(.001968504,0,0,.001968504,-34.84709,-76.24591)" d="M71735.76 118921.488H125075.76V154741.49H71735.76Z" fill="#f3f3f3" fill-rule="evenodd"/>
<path transform="matrix(.001968504,0,0,.001968504,-34.84709,-76.24591)" stroke-width="381" stroke-linecap="butt" stroke-linejoin="round" fill="none" stroke="#000000" d="M71735.76 118921.488H125075.76V154741.49H71735.76Z"/>
<text xml:space="preserve" transform="matrix(.75 0 0 .75 106.36502 157.8515)" font-size="13.104933" font-family="MUFUZY+STIXTwoText-Regular"><tspan y="27.580735" x="15 22.456707 32.023309 40.75119 48.653467 51.733125 57.69587 63.973134 68.10119 72.88449 79.17486 86.212207 92.948139 96.65683 102.9472 107.02283 113.103519 118.27997">PDCT extrapolates </tspan></text>
<text xml:space="preserve" transform="matrix(.75 0 0 .75 106.36502 157.8515)" font-size="13.104933" font-family="MUFUZY+STIXTwoText-Regular"><tspan y="43.580736" x="15 23.780304 30.38519 35.063653 38.14331 44.433679 48.561735 51.64139 58.128335 60.945894 73.05485 76.13451 82.42487 88.26968 93.13161 99.86754 105.04399 110.22044">CSI at 4 W across </tspan></text>
<text xml:space="preserve" transform="matrix(.75 0 0 .75 106.36502 157.8515)" font-size="13.104933" font-family="MUFUZY+STIXTwoText-Regular"><tspan y="59.580736" x="15 19.128054 26.6896 32.77029 35.84995 42.8873 49.623235 59.386407 65.467098 70.44697 73.52663 80.59019 87.326129 98.49153 104.7819 108.51681 116.06525">the power domain </tspan></text>
<text xml:space="preserve" transform="matrix(.75 0 0 .75 106.36502 157.8515)" font-size="13.104933" font-family="MUFUZY+STIXTwoText-Regular"><tspan y="75.580738" x="15 19.075634 25.81157 28.891228 37.67153 44.276418 48.95488 52.03454 58.324907 62.45296 65.53262 72.01956 78.57203 85.058979 91.54591 94.36347 105.43714">to CSI at 1&#x2013;10 W.</tspan></text>
<path transform="matrix(.001968504,0,0,.001968504,-34.84709,-76.24591)" d="M124828.57 118903.339H178168.58V154723.35H124828.57Z" fill="#f3f3f3" fill-rule="evenodd"/>
<path transform="matrix(.001968504,0,0,.001968504,-34.84709,-76.24591)" stroke-width="381" stroke-linecap="butt" stroke-linejoin="round" fill="none" stroke="#000000" d="M124828.57 118903.339H178168.58V154723.35H124828.57Z"/>
<text xml:space="preserve" transform="matrix(.75 0 0 .75 210.87847 157.81577)" font-size="13.104933" font-family="MUFUZY+STIXTwoText-Regular"><tspan y="27.580735" x="15 24.658337 31.695687 35.823743 39.558649 50.724054 54.458959 60.461019 66.54171 71.52158 74.60124 79.777698 85.85838 92.14875 97.01068 102.855487 110.41703 116.49772 121.674167">Optimizer searches </tspan></text>
<text xml:space="preserve" transform="matrix(.75 0 0 .75 210.87847 157.81577)" font-size="13.104933" font-family="MUFUZY+STIXTwoText-Regular"><tspan y="43.580736" x="15 19.023215 25.75915 30.739026 33.818685 37.55359 44.61715 50.697839 56.988206 60.6969 63.776559 70.8139 77.549839 87.31301 93.3937 98.37357">for ideal power </tspan></text>
<text xml:space="preserve" transform="matrix(.75 0 0 .75 210.87847 157.81577)" font-size="13.104933" font-family="MUFUZY+STIXTwoText-Regular"><tspan y="59.580736" x="15 22.063559 25.798466 30.974915 35.10297 40.082845 43.81775 50.658525 58.128335 62.25639 65.991298 72.727237 80.27567 83.35533 90.82514 96.00159 99.736499 107.284938 113.62772">distribution using </tspan></text>
<text xml:space="preserve" transform="matrix(.75 0 0 .75 210.87847 157.81577)" font-size="13.104933" font-family="MUFUZY+STIXTwoText-Regular"><tspan y="75.580738" x="15 21.342789 25.077694 31.328747 37.409437 44.95788 48.037538 55.074888 59.936819 66.01751 73.08107 76.81598 82.66078 86.78883 90.52374 97.259677 104.80811 109.98456">given predictions.</tspan></text>
<path transform="matrix(.001968504,0,0,.001968504,-34.84709,-76.24591)" d="M45589 76631.4V119723.4" fill-opacity="0" fill-rule="evenodd"/>
<path transform="matrix(.001968504,0,0,.001968504,-34.84709,-76.24591)" stroke-width="381" stroke-linecap="butt" stroke-linejoin="round" fill="none" stroke="#000000" d="M45589 78075.39V118279.41"/>
<path transform="matrix(.001968504,0,0,.001968504,-34.84709,-76.24591)" d="M45589 76821.9C45935.14 76821.9 46215.748 77102.5 46215.748 77448.64 46215.748 77794.78 45935.14 78075.39 45589 78075.39 45242.86 78075.39 44962.255 77794.78 44962.255 77448.64 44962.255 77102.5 45242.86 76821.9 45589 76821.9Z"/>
<path transform="matrix(.001968504,0,0,.001968504,-34.84709,-76.24591)" stroke-width="381" stroke-linecap="butt" stroke-miterlimit="10" stroke-linejoin="miter" fill="none" stroke="#000000" d="M45589 76821.9C45935.14 76821.9 46215.748 77102.5 46215.748 77448.64 46215.748 77794.78 45935.14 78075.39 45589 78075.39 45242.86 78075.39 44962.255 77794.78 44962.255 77448.64 44962.255 77102.5 45242.86 76821.9 45589 76821.9Z"/>
<path transform="matrix(.001968504,0,0,.001968504,-34.84709,-76.24591)" d="M45589 119532.9C45242.86 119532.9 44962.255 119252.3 44962.255 118906.16 44962.255 118560.019 45242.86 118279.41 45589 118279.41 45935.14 118279.41 46215.748 118560.019 46215.748 118906.16 46215.748 119252.3 45935.14 119532.9 45589 119532.9Z"/>
<path transform="matrix(.001968504,0,0,.001968504,-34.84709,-76.24591)" stroke-width="381" stroke-linecap="butt" stroke-miterlimit="10" stroke-linejoin="miter" fill="none" stroke="#000000" d="M45589 119532.9C45242.86 119532.9 44962.255 119252.3 44962.255 118906.16 44962.255 118560.019 45242.86 118279.41 45589 118279.41 45935.14 118279.41 46215.748 118560.019 46215.748 118906.16 46215.748 119252.3 45935.14 119532.9 45589 119532.9Z"/>
<path transform="matrix(.001968504,0,0,.001968504,-34.84709,-76.24591)" d="M98611.199 76631.4V119723.4" fill-opacity="0" fill-rule="evenodd"/>
<path transform="matrix(.001968504,0,0,.001968504,-34.84709,-76.24591)" stroke-width="381" stroke-linecap="butt" stroke-linejoin="round" fill="none" stroke="#000000" d="M98611.199 78075.39V118279.41"/>
<path transform="matrix(.001968504,0,0,.001968504,-34.84709,-76.24591)" d="M98611.199 76821.9C98957.339 76821.9 99237.94 77102.5 99237.94 77448.64 99237.94 77794.78 98957.339 78075.39 98611.199 78075.39 98265.058 78075.39 97984.45 77794.78 97984.45 77448.64 97984.45 77102.5 98265.058 76821.9 98611.199 76821.9Z"/>
<path transform="matrix(.001968504,0,0,.001968504,-34.84709,-76.24591)" stroke-width="381" stroke-linecap="butt" stroke-miterlimit="10" stroke-linejoin="miter" fill="none" stroke="#000000" d="M98611.199 76821.9C98957.339 76821.9 99237.94 77102.5 99237.94 77448.64 99237.94 77794.78 98957.339 78075.39 98611.199 78075.39 98265.058 78075.39 97984.45 77794.78 97984.45 77448.64 97984.45 77102.5 98265.058 76821.9 98611.199 76821.9Z"/>
<path transform="matrix(.001968504,0,0,.001968504,-34.84709,-76.24591)" d="M98611.199 119532.9C98265.058 119532.9 97984.45 119252.3 97984.45 118906.16 97984.45 118560.019 98265.058 118279.41 98611.199 118279.41 98957.339 118279.41 99237.94 118560.019 99237.94 118906.16 99237.94 119252.3 98957.339 119532.9 98611.199 119532.9Z"/>
<path transform="matrix(.001968504,0,0,.001968504,-34.84709,-76.24591)" stroke-width="381" stroke-linecap="butt" stroke-miterlimit="10" stroke-linejoin="miter" fill="none" stroke="#000000" d="M98611.199 119532.9C98265.058 119532.9 97984.45 119252.3 97984.45 118906.16 97984.45 118560.019 98265.058 118279.41 98611.199 118279.41 98957.339 118279.41 99237.94 118560.019 99237.94 118906.16 99237.94 119252.3 98957.339 119532.9 98611.199 119532.9Z"/>
<path transform="matrix(.001968504,0,0,.001968504,-34.84709,-76.24591)" d="M151772.67 76631.4V119723.4" fill-opacity="0" fill-rule="evenodd"/>
<path transform="matrix(.001968504,0,0,.001968504,-34.84709,-76.24591)" stroke-width="381" stroke-linecap="butt" stroke-linejoin="round" fill="none" stroke="#000000" d="M151772.67 78075.39V118279.41"/>
<path transform="matrix(.001968504,0,0,.001968504,-34.84709,-76.24591)" d="M151772.67 76821.9C152118.82 76821.9 152399.42 77102.5 152399.42 77448.64 152399.42 77794.78 152118.82 78075.39 151772.67 78075.39 151426.53 78075.39 151145.92 77794.78 151145.92 77448.64 151145.92 77102.5 151426.53 76821.9 151772.67 76821.9Z"/>
<path transform="matrix(.001968504,0,0,.001968504,-34.84709,-76.24591)" stroke-width="381" stroke-linecap="butt" stroke-miterlimit="10" stroke-linejoin="miter" fill="none" stroke="#000000" d="M151772.67 76821.9C152118.82 76821.9 152399.42 77102.5 152399.42 77448.64 152399.42 77794.78 152118.82 78075.39 151772.67 78075.39 151426.53 78075.39 151145.92 77794.78 151145.92 77448.64 151145.92 77102.5 151426.53 76821.9 151772.67 76821.9Z"/>
<path transform="matrix(.001968504,0,0,.001968504,-34.84709,-76.24591)" d="M151772.67 119532.9C151426.53 119532.9 151145.92 119252.3 151145.92 118906.16 151145.92 118560.019 151426.53 118279.41 151772.67 118279.41 152118.82 118279.41 152399.42 118560.019 152399.42 118906.16 152399.42 119252.3 152118.82 119532.9 151772.67 119532.9Z"/>
<path transform="matrix(.001968504,0,0,.001968504,-34.84709,-76.24591)" stroke-width="381" stroke-linecap="butt" stroke-miterlimit="10" stroke-linejoin="miter" fill="none" stroke="#000000" d="M151772.67 119532.9C151426.53 119532.9 151145.92 119252.3 151145.92 118906.16 151145.92 118560.019 151426.53 118279.41 151772.67 118279.41 152118.82 118279.41 152399.42 118560.019 152399.42 118906.16 152399.42 119252.3 152118.82 119532.9 151772.67 119532.9Z"/>
<path transform="matrix(.001968504,0,0,.001968504,-34.84709,-76.24591)" d="M45580.787 83887.56H98704.78" fill-opacity="0" fill-rule="evenodd"/>
<path transform="matrix(.001968504,0,0,.001968504,-34.84709,-76.24591)" stroke-width="381" stroke-linecap="butt" stroke-linejoin="round" fill="none" stroke="#000000" d="M45580.787 83887.56H97399.06"/>
<path transform="matrix(.001968504,0,0,.001968504,-34.84709,-76.24591)" d="M97399.06 83887.56 96970.59 84316.03 98147.8 83887.56 96970.59 83459.09Z" fill-rule="evenodd"/>
<path transform="matrix(.001968504,0,0,.001968504,-34.84709,-76.24591)" stroke-width="381" stroke-linecap="butt" stroke-miterlimit="10" stroke-linejoin="miter" fill="none" stroke="#000000" d="M97399.06 83887.56 96970.59 84316.03 98147.8 83887.56 96970.59 83459.09Z"/>
<path transform="matrix(.001968504,0,0,.001968504,-34.84709,-76.24591)" d="M45589.33 98830.29H204877.33" fill-opacity="0" fill-rule="evenodd"/>
<path transform="matrix(.001968504,0,0,.001968504,-34.84709,-76.24591)" stroke-width="381" stroke-linecap="butt" stroke-linejoin="round" fill="none" stroke="#000000" d="M46895.048 98830.29H204877.33"/>
<path transform="matrix(.001968504,0,0,.001968504,-34.84709,-76.24591)" d="M46895.048 98830.29 47323.517 98401.82 46146.314 98830.29 47323.517 99258.76Z" fill-rule="evenodd"/>
<path transform="matrix(.001968504,0,0,.001968504,-34.84709,-76.24591)" stroke-width="381" stroke-linecap="butt" stroke-miterlimit="10" stroke-linejoin="miter" fill="none" stroke="#000000" d="M46895.048 98830.29 47323.517 98401.82 46146.314 98830.29 47323.517 99258.76Z"/>
<path transform="matrix(.001968504,0,0,.001968504,-34.84709,-76.24591)" d="M85228.38 43011.646C85228.38 41363.88 86564.167 40028.099 88211.93 40028.099H108671.28C109462.56 40028.099 110221.44 40342.439 110780.96 40901.958 111340.488 41461.48 111654.82 42220.36 111654.82 43011.646V72685.4C111654.82 74333.167 110319.05 75668.949 108671.28 75668.949H88211.93C86564.167 75668.949 85228.38 74333.167 85228.38 72685.4Z" fill-opacity="0" fill-rule="evenodd"/>
<path transform="matrix(.001968504,0,0,.001968504,-34.84709,-76.24591)" stroke-width="381" stroke-linecap="butt" stroke-dasharray="381,1143" stroke-linejoin="round" fill="none" stroke="#000000" d="M85228.38 43011.646C85228.38 41363.88 86564.167 40028.099 88211.93 40028.099H108671.28C109462.56 40028.099 110221.44 40342.439 110780.96 40901.958 111340.488 41461.48 111654.82 42220.36 111654.82 43011.646V72685.4C111654.82 74333.167 110319.05 75668.949 108671.28 75668.949H88211.93C86564.167 75668.949 85228.38 74333.167 85228.38 72685.4Z"/>
<path transform="matrix(.001968504,0,0,.001968504,-34.84709,-76.24591)" d="M86736.23 60617.259H111653.34V82365.589H86736.23Z" fill-opacity="0" fill-rule="evenodd"/>
<text xml:space="preserve" transform="matrix(.75 0 0 .75 135.89351 43.079408)" font-size="11.7752" font-family="MUFUZY+STIXTwoText-Bold" font-weight="bold"><tspan y="32.30419" x="21 26.828724 29.360392">4 W</tspan></text>
<path transform="matrix(.001968504,0,0,.001968504,-34.84709,-76.24591)" d="M83516.98 34262.478H117206.98V56010.806H83516.98Z" fill-opacity="0" fill-rule="evenodd"/>
<text xml:space="preserve" transform="matrix(.75 0 0 .75 129.55641 -8.800087)" font-size="11.7752" font-family="MUFUZY+STIXTwoText-Bold" font-weight="bold"><tspan y="32.30419" x="21 26.828724 32.716325 38.545049 44.37377 46.90544">1&#x2013;10 W</tspan></text>
<path transform="matrix(.001968504,0,0,.001968504,-34.84709,-76.24591)" d="M98314.21 48888.43 98554.04 67058.73" fill-opacity="0" fill-rule="evenodd"/>
<path transform="matrix(.001968504,0,0,.001968504,-34.84709,-76.24591)" stroke-width="856" stroke-linecap="butt" stroke-linejoin="round" fill="none" stroke="#000000" d="M98314.21 48888.43 98554.04 67058.73"/>
<path transform="matrix(.001968504,0,0,.001968504,-34.84709,-76.24591)" d="M96637.86 64812.97C96143.69 64812.97 95743.089 64412.365 95743.089 63918.19V56724.056C95743.089 56486.748 95837.35 56259.158 96005.16 56091.35 96172.96 55923.55 96400.55 55829.279 96637.86 55829.279H100216.86C100711.03 55829.279 101111.64 56229.884 101111.64 56724.056V63918.19C101111.64 64412.365 100711.03 64812.97 100216.86 64812.97Z" fill="#d6deea" fill-rule="evenodd"/>
<path transform="matrix(.001968504,0,0,.001968504,-34.84709,-76.24591)" stroke-width="428" stroke-linecap="butt" stroke-linejoin="round" fill="none" stroke="#000000" d="M96637.86 64812.97C96143.69 64812.97 95743.089 64412.365 95743.089 63918.19V56724.056C95743.089 56486.748 95837.35 56259.158 96005.16 56091.35 96172.96 55923.55 96400.55 55829.279 96637.86 55829.279H100216.86C100711.03 55829.279 101111.64 56229.884 101111.64 56724.056V63918.19C101111.64 64412.365 100711.03 64812.97 100216.86 64812.97Z"/>
<path transform="matrix(.001968504,0,0,.001968504,-34.84709,-76.24591)" d="M96228.8 53970.68C95960.55 53970.68 95743.089 53753.22 95743.089 53484.966V51966.056C95743.089 51837.236 95794.26 51713.689 95885.34 51622.599 95976.44 51531.509 96099.98 51480.337 96228.8 51480.337H100625.92C100894.17 51480.337 101111.64 51697.8 101111.64 51966.056V53484.966C101111.64 53753.22 100894.17 53970.68 100625.92 53970.68Z" fill="#f3f3f3" fill-rule="evenodd"/>
<path transform="matrix(.001968504,0,0,.001968504,-34.84709,-76.24591)" stroke-width="428" stroke-linecap="butt" stroke-linejoin="round" fill="none" stroke="#000000" d="M96228.8 53970.68C95960.55 53970.68 95743.089 53753.22 95743.089 53484.966V51966.056C95743.089 51837.236 95794.26 51713.689 95885.34 51622.599 95976.44 51531.509 96099.98 51480.337 96228.8 51480.337H100625.92C100894.17 51480.337 101111.64 51697.8 101111.64 51966.056V53484.966C101111.64 53753.22 100894.17 53970.68 100625.92 53970.68Z"/>
<path transform="matrix(.001968504,0,0,.001968504,-34.84709,-76.24591)" d="M12706.983 73637.51H49618.986V93809.51H12706.983Z" fill-opacity="0" fill-rule="evenodd"/>
<text xml:space="preserve" transform="matrix(.75 0 0 .75 -9.833345 68.70982)" font-size="17.4732" font-family="MUFUZY+STIXTwoText-Italic" font-style="italic"><tspan y="31.774271" x="31.120732">t</tspan></text>
<text xml:space="preserve" transform="matrix(.75 0 0 .75 -9.833345 68.70982)" font-size="17.4732" font-family="MUFUZY+STIXTwoText-Regular"><tspan y="31.774271" x="36.326406 40.432607 53.01331 57.11951"> = 0</tspan></text>
<path transform="matrix(.001968504,0,0,.001968504,-34.84709,-76.24591)" d="M98648.05 88626.9H151772.05" fill-opacity="0" fill-rule="evenodd"/>
<path transform="matrix(.001968504,0,0,.001968504,-34.84709,-76.24591)" stroke-width="381" stroke-linecap="butt" stroke-linejoin="round" fill="none" stroke="#000000" d="M98648.05 88626.9H150466.33"/>
<path transform="matrix(.001968504,0,0,.001968504,-34.84709,-76.24591)" d="M150466.33 88626.9 150037.86 89055.37 151215.07 88626.9 150037.86 88198.43Z" fill-rule="evenodd"/>
<path transform="matrix(.001968504,0,0,.001968504,-34.84709,-76.24591)" stroke-width="381" stroke-linecap="butt" stroke-miterlimit="10" stroke-linejoin="miter" fill="none" stroke="#000000" d="M150466.33 88626.9 150037.86 89055.37 151215.07 88626.9 150037.86 88198.43Z"/>
<path transform="matrix(.001968504,0,0,.001968504,-34.84709,-76.24591)" d="M204679.89 46063.919 202116.63 62092.896" fill-opacity="0" fill-rule="evenodd"/>
<path transform="matrix(.001968504,0,0,.001968504,-34.84709,-76.24591)" stroke-width="350" stroke-linecap="butt" stroke-linejoin="round" fill="none" stroke="#000000" d="M204679.89 46063.919 202116.63 62092.896"/>
<path transform="matrix(.001968504,0,0,.001968504,-34.84709,-76.24591)" d="M204679.89 46063.919 207243.16 62092.896" fill-opacity="0" fill-rule="evenodd"/>
<path transform="matrix(.001968504,0,0,.001968504,-34.84709,-76.24591)" stroke-width="350" stroke-linecap="butt" stroke-linejoin="round" fill="none" stroke="#000000" d="M204679.89 46063.919 207243.16 62092.896"/>
<path transform="matrix(.001968504,0,0,.001968504,-34.84709,-76.24591)" d="M206437.2 56987.255H202936.96" fill-opacity="0" fill-rule="evenodd"/>
<path transform="matrix(.001968504,0,0,.001968504,-34.84709,-76.24591)" stroke-width="350" stroke-linecap="butt" stroke-linejoin="round" fill="none" stroke="#000000" d="M206437.2 56987.255H202936.96"/>
<path transform="matrix(.001968504,0,0,.001968504,-34.84709,-76.24591)" d="M205826.77 53061.66 202994.25 56753.49" fill-opacity="0" fill-rule="evenodd"/>
<path transform="matrix(.001968504,0,0,.001968504,-34.84709,-76.24591)" stroke-width="350" stroke-linecap="butt" stroke-linejoin="round" fill="none" stroke="#000000" d="M205826.77 53061.66 202994.25 56753.49"/>
<path transform="matrix(.001968504,0,0,.001968504,-34.84709,-76.24591)" d="M203553.11 53159.259 206385.61 56851.083" fill-opacity="0" fill-rule="evenodd"/>
<path transform="matrix(.001968504,0,0,.001968504,-34.84709,-76.24591)" stroke-width="350" stroke-linecap="butt" stroke-linejoin="round" fill="none" stroke="#000000" d="M203553.11 53159.259 206385.61 56851.083"/>
<path transform="matrix(.001968504,0,0,.001968504,-34.84709,-76.24591)" d="M205388.02 50658.689 203553.52 53060.169" fill-opacity="0" fill-rule="evenodd"/>
<path transform="matrix(.001968504,0,0,.001968504,-34.84709,-76.24591)" stroke-width="350" stroke-linecap="butt" stroke-linejoin="round" fill="none" stroke="#000000" d="M205388.02 50658.689 203553.52 53060.169"/>
<path transform="matrix(.001968504,0,0,.001968504,-34.84709,-76.24591)" d="M203867.75 50537.72 205702.25 52939.2" fill-opacity="0" fill-rule="evenodd"/>
<path transform="matrix(.001968504,0,0,.001968504,-34.84709,-76.24591)" stroke-width="350" stroke-linecap="butt" stroke-linejoin="round" fill="none" stroke="#000000" d="M203867.75 50537.72 205702.25 52939.2"/>
<path transform="matrix(.001968504,0,0,.001968504,-34.84709,-76.24591)" d="M205358.1 50290.005H204029.8" fill-opacity="0" fill-rule="evenodd"/>
<path transform="matrix(.001968504,0,0,.001968504,-34.84709,-76.24591)" stroke-width="350" stroke-linecap="butt" stroke-linejoin="round" fill="none" stroke="#000000" d="M205358.1 50290.005H204029.8"/>
<path transform="matrix(.001968504,0,0,.001968504,-34.84709,-76.24591)" d="M207098.61 43209.564C207555.83 43448.486 207812.39 43816.744 207789.19 44200.77 207765.97 44584.798 207465.78 44938.47 206981.19 45152.724L205961.52 44152.89Z" fill-opacity="0" fill-rule="evenodd"/>
<path transform="matrix(.001968504,0,0,.001968504,-34.84709,-76.24591)" d="M207098.61 43209.564C207555.83 43448.486 207812.39 43816.744 207789.19 44200.77 207765.97 44584.798 207465.78 44938.47 206981.19 45152.724" fill-opacity="0" fill-rule="evenodd"/>
<path transform="matrix(.001968504,0,0,.001968504,-34.84709,-76.24591)" stroke-width="350" stroke-linecap="butt" stroke-linejoin="round" fill="none" stroke="#000000" d="M207098.61 43209.564C207555.83 43448.486 207812.39 43816.744 207789.19 44200.77 207765.97 44584.798 207465.78 44938.47 206981.19 45152.724"/>
<path transform="matrix(.001968504,0,0,.001968504,-34.84709,-76.24591)" d="M205441.08 43176.779C206253.02 43293.98 206816.17 43700.947 206807.03 44163.88 206797.89 44626.814 206218.8 45026.919 205402.44 45134.337L204978.03 44152.89Z" fill-opacity="0" fill-rule="evenodd"/>
<path transform="matrix(.001968504,0,0,.001968504,-34.84709,-76.24591)" d="M205441.08 43176.779C206253.02 43293.98 206816.17 43700.947 206807.03 44163.88 206797.89 44626.814 206218.8 45026.919 205402.44 45134.337" fill-opacity="0" fill-rule="evenodd"/>
<path transform="matrix(.001968504,0,0,.001968504,-34.84709,-76.24591)" stroke-width="350" stroke-linecap="butt" stroke-linejoin="round" fill="none" stroke="#000000" d="M205441.08 43176.779C206253.02 43293.98 206816.17 43700.947 206807.03 44163.88 206797.89 44626.814 206218.8 45026.919 205402.44 45134.337"/>
<path transform="matrix(.001968504,0,0,.001968504,-34.84709,-76.24591)" d="M202154.07 43209.564C201696.85 43448.486 201440.28 43816.744 201463.49 44200.77 201486.7 44584.798 201786.89 44938.47 202271.49 45152.724L203291.16 44152.89Z" fill-opacity="0" fill-rule="evenodd"/>
<path transform="matrix(.001968504,0,0,.001968504,-34.84709,-76.24591)" d="M202154.07 43209.564C201696.85 43448.486 201440.28 43816.744 201463.49 44200.77 201486.7 44584.798 201786.89 44938.47 202271.49 45152.724" fill-opacity="0" fill-rule="evenodd"/>
<path transform="matrix(.001968504,0,0,.001968504,-34.84709,-76.24591)" stroke-width="350" stroke-linecap="butt" stroke-linejoin="round" fill="none" stroke="#000000" d="M202154.07 43209.564C201696.85 43448.486 201440.28 43816.744 201463.49 44200.77 201486.7 44584.798 201786.89 44938.47 202271.49 45152.724"/>
<path transform="matrix(.001968504,0,0,.001968504,-34.84709,-76.24591)" d="M203811.6 43176.779C202999.66 43293.98 202436.5 43700.947 202445.64 44163.88 202454.78 44626.814 203033.88 45026.919 203850.24 45134.337L204274.64 44152.89Z" fill-opacity="0" fill-rule="evenodd"/>
<path transform="matrix(.001968504,0,0,.001968504,-34.84709,-76.24591)" d="M203811.6 43176.779C202999.66 43293.98 202436.5 43700.947 202445.64 44163.88 202454.78 44626.814 203033.88 45026.919 203850.24 45134.337" fill-opacity="0" fill-rule="evenodd"/>
<path transform="matrix(.001968504,0,0,.001968504,-34.84709,-76.24591)" stroke-width="350" stroke-linecap="butt" stroke-linejoin="round" fill="none" stroke="#000000" d="M203811.6 43176.779C202999.66 43293.98 202436.5 43700.947 202445.64 44163.88 202454.78 44626.814 203033.88 45026.919 203850.24 45134.337"/>
<path transform="matrix(.001968504,0,0,.001968504,-34.84709,-76.24591)" d="M214678.83 65871.93C214678.83 65542.32 214946.03 65275.119 215275.66 65275.119H217662.85C217821.13 65275.119 217972.94 65337.998 218084.86 65449.92 218196.78 65561.84 218259.66 65713.65 218259.66 65871.93V71745.15C218259.66 72074.769 217992.46 72341.97 217662.85 72341.97H215275.66C214946.03 72341.97 214678.83 72074.769 214678.83 71745.15Z" fill-rule="evenodd"/>
<path transform="matrix(.001968504,0,0,.001968504,-34.84709,-76.24591)" stroke-width="75" stroke-linecap="butt" stroke-linejoin="round" fill="none" stroke="#000000" d="M214678.83 65871.93C214678.83 65542.32 214946.03 65275.119 215275.66 65275.119H217662.85C217821.13 65275.119 217972.94 65337.998 218084.86 65449.92 218196.78 65561.84 218259.66 65713.65 218259.66 65871.93V71745.15C218259.66 72074.769 217992.46 72341.97 217662.85 72341.97H215275.66C214946.03 72341.97 214678.83 72074.769 214678.83 71745.15Z"/>
<path transform="matrix(.001968504,0,0,.001968504,-34.84709,-76.24591)" d="M215036.69 65905.5C215036.69 65765.6 215150.1 65652.199 215289.99 65652.199H217648.5C217715.69 65652.199 217780.13 65678.88 217827.63 65726.38 217875.13 65773.89 217901.82 65838.32 217901.82 65905.5V70709.62C217901.82 70849.519 217788.4 70962.92 217648.5 70962.92H215289.99C215150.1 70962.92 215036.69 70849.519 215036.69 70709.62Z" fill="#ffffff" fill-rule="evenodd"/>
<path transform="matrix(.001968504,0,0,.001968504,-34.84709,-76.24591)" stroke-width="75" stroke-linecap="butt" stroke-linejoin="round" fill="none" stroke="#ffffff" d="M215036.69 65905.5C215036.69 65765.6 215150.1 65652.199 215289.99 65652.199H217648.5C217715.69 65652.199 217780.13 65678.88 217827.63 65726.38 217875.13 65773.89 217901.82 65838.32 217901.82 65905.5V70709.62C217901.82 70849.519 217788.4 70962.92 217648.5 70962.92H215289.99C215150.1 70962.92 215036.69 70849.519 215036.69 70709.62Z"/>
<path transform="matrix(.001968504,0,0,.001968504,-34.84709,-76.24591)" d="M216024.28 71682.94C216024.28 71437.22 216223.5 71238.02 216469.24 71238.02 216587.25 71238.02 216700.42 71284.9 216783.88 71368.339 216867.32 71451.77 216914.2 71564.94 216914.2 71682.94 216914.2 71928.66 216714.99 72127.85 216469.24 72127.85 216223.5 72127.85 216024.28 71928.66 216024.28 71682.94Z" fill="#ffffff" fill-rule="evenodd"/>
<path transform="matrix(.001968504,0,0,.001968504,-34.84709,-76.24591)" stroke-width="75" stroke-linecap="butt" stroke-linejoin="round" fill="none" stroke="#000000" d="M216024.28 71682.94C216024.28 71437.22 216223.5 71238.02 216469.24 71238.02 216587.25 71238.02 216700.42 71284.9 216783.88 71368.339 216867.32 71451.77 216914.2 71564.94 216914.2 71682.94 216914.2 71928.66 216714.99 72127.85 216469.24 72127.85 216223.5 72127.85 216024.28 71928.66 216024.28 71682.94Z"/>
<path transform="matrix(.001968504,0,0,.001968504,-34.84709,-76.24591)" d="M206518.88 65871.93C206518.88 65542.32 206786.08 65275.119 207115.7 65275.119H209502.89C209661.17 65275.119 209812.99 65337.998 209924.9 65449.92 210036.83 65561.84 210099.7 65713.65 210099.7 65871.93V71745.15C210099.7 72074.769 209832.5 72341.97 209502.89 72341.97H207115.7C206786.08 72341.97 206518.88 72074.769 206518.88 71745.15Z" fill-rule="evenodd"/>
<path transform="matrix(.001968504,0,0,.001968504,-34.84709,-76.24591)" stroke-width="75" stroke-linecap="butt" stroke-linejoin="round" fill="none" stroke="#000000" d="M206518.88 65871.93C206518.88 65542.32 206786.08 65275.119 207115.7 65275.119H209502.89C209661.17 65275.119 209812.99 65337.998 209924.9 65449.92 210036.83 65561.84 210099.7 65713.65 210099.7 65871.93V71745.15C210099.7 72074.769 209832.5 72341.97 209502.89 72341.97H207115.7C206786.08 72341.97 206518.88 72074.769 206518.88 71745.15Z"/>
<path transform="matrix(.001968504,0,0,.001968504,-34.84709,-76.24591)" d="M206876.74 65905.5C206876.74 65765.6 206990.14 65652.199 207130.03 65652.199H209488.55C209555.74 65652.199 209620.17 65678.88 209667.67 65726.38 209715.17 65773.89 209741.86 65838.32 209741.86 65905.5V70709.62C209741.86 70849.519 209628.46 70962.92 209488.55 70962.92H207130.03C206990.14 70962.92 206876.74 70849.519 206876.74 70709.62Z" fill="#ffffff" fill-rule="evenodd"/>
<path transform="matrix(.001968504,0,0,.001968504,-34.84709,-76.24591)" stroke-width="75" stroke-linecap="butt" stroke-linejoin="round" fill="none" stroke="#ffffff" d="M206876.74 65905.5C206876.74 65765.6 206990.14 65652.199 207130.03 65652.199H209488.55C209555.74 65652.199 209620.17 65678.88 209667.67 65726.38 209715.17 65773.89 209741.86 65838.32 209741.86 65905.5V70709.62C209741.86 70849.519 209628.46 70962.92 209488.55 70962.92H207130.03C206990.14 70962.92 206876.74 70849.519 206876.74 70709.62Z"/>
<path transform="matrix(.001968504,0,0,.001968504,-34.84709,-76.24591)" d="M207864.33 71682.94C207864.33 71437.22 208063.55 71238.02 208309.28 71238.02 208427.3 71238.02 208540.47 71284.9 208623.92 71368.339 208707.36 71451.77 208754.25 71564.94 208754.25 71682.94 208754.25 71928.66 208555.03 72127.85 208309.28 72127.85 208063.55 72127.85 207864.33 71928.66 207864.33 71682.94Z" fill="#ffffff" fill-rule="evenodd"/>
<path transform="matrix(.001968504,0,0,.001968504,-34.84709,-76.24591)" stroke-width="75" stroke-linecap="butt" stroke-linejoin="round" fill="none" stroke="#000000" d="M207864.33 71682.94C207864.33 71437.22 208063.55 71238.02 208309.28 71238.02 208427.3 71238.02 208540.47 71284.9 208623.92 71368.339 208707.36 71451.77 208754.25 71564.94 208754.25 71682.94 208754.25 71928.66 208555.03 72127.85 208309.28 72127.85 208063.55 72127.85 207864.33 71928.66 207864.33 71682.94Z"/>
<path transform="matrix(.001968504,0,0,.001968504,-34.84709,-76.24591)" d="M198358.92 65871.93C198358.92 65542.32 198626.13 65275.119 198955.75 65275.119H201342.94C201501.22 65275.119 201653.03 65337.998 201764.96 65449.92 201876.88 65561.84 201939.75 65713.65 201939.75 65871.93V71745.15C201939.75 72074.769 201672.55 72341.97 201342.94 72341.97H198955.75C198626.13 72341.97 198358.92 72074.769 198358.92 71745.15Z" fill-rule="evenodd"/>
<path transform="matrix(.001968504,0,0,.001968504,-34.84709,-76.24591)" stroke-width="75" stroke-linecap="butt" stroke-linejoin="round" fill="none" stroke="#000000" d="M198358.92 65871.93C198358.92 65542.32 198626.13 65275.119 198955.75 65275.119H201342.94C201501.22 65275.119 201653.03 65337.998 201764.96 65449.92 201876.88 65561.84 201939.75 65713.65 201939.75 65871.93V71745.15C201939.75 72074.769 201672.55 72341.97 201342.94 72341.97H198955.75C198626.13 72341.97 198358.92 72074.769 198358.92 71745.15Z"/>
<path transform="matrix(.001968504,0,0,.001968504,-34.84709,-76.24591)" d="M198716.78 65905.5C198716.78 65765.6 198830.19 65652.199 198970.08 65652.199H201328.6C201395.78 65652.199 201460.2 65678.88 201507.72 65726.38 201555.22 65773.89 201581.9 65838.32 201581.9 65905.5V70709.62C201581.9 70849.519 201468.5 70962.92 201328.6 70962.92H198970.08C198830.19 70962.92 198716.78 70849.519 198716.78 70709.62Z" fill="#ffffff" fill-rule="evenodd"/>
<path transform="matrix(.001968504,0,0,.001968504,-34.84709,-76.24591)" stroke-width="75" stroke-linecap="butt" stroke-linejoin="round" fill="none" stroke="#ffffff" d="M198716.78 65905.5C198716.78 65765.6 198830.19 65652.199 198970.08 65652.199H201328.6C201395.78 65652.199 201460.2 65678.88 201507.72 65726.38 201555.22 65773.89 201581.9 65838.32 201581.9 65905.5V70709.62C201581.9 70849.519 201468.5 70962.92 201328.6 70962.92H198970.08C198830.19 70962.92 198716.78 70849.519 198716.78 70709.62Z"/>
<path transform="matrix(.001968504,0,0,.001968504,-34.84709,-76.24591)" d="M199704.38 71682.94C199704.38 71437.22 199903.6 71238.02 200149.33 71238.02 200267.35 71238.02 200380.52 71284.9 200463.97 71368.339 200547.4 71451.77 200594.28 71564.94 200594.28 71682.94 200594.28 71928.66 200395.08 72127.85 200149.33 72127.85 199903.6 72127.85 199704.38 71928.66 199704.38 71682.94Z" fill="#ffffff" fill-rule="evenodd"/>
<path transform="matrix(.001968504,0,0,.001968504,-34.84709,-76.24591)" stroke-width="75" stroke-linecap="butt" stroke-linejoin="round" fill="none" stroke="#000000" d="M199704.38 71682.94C199704.38 71437.22 199903.6 71238.02 200149.33 71238.02 200267.35 71238.02 200380.52 71284.9 200463.97 71368.339 200547.4 71451.77 200594.28 71564.94 200594.28 71682.94 200594.28 71928.66 200395.08 72127.85 200149.33 72127.85 199903.6 72127.85 199704.38 71928.66 199704.38 71682.94Z"/>
<path transform="matrix(.001968504,0,0,.001968504,-34.84709,-76.24591)" d="M190198.97 65871.93C190198.97 65542.32 190466.17 65275.119 190795.8 65275.119H193182.99C193341.27 65275.119 193493.08 65337.998 193605 65449.92 193716.92 65561.84 193779.8 65713.65 193779.8 65871.93V71745.15C193779.8 72074.769 193512.6 72341.97 193182.99 72341.97H190795.8C190466.17 72341.97 190198.97 72074.769 190198.97 71745.15Z" fill-rule="evenodd"/>
<path transform="matrix(.001968504,0,0,.001968504,-34.84709,-76.24591)" stroke-width="75" stroke-linecap="butt" stroke-linejoin="round" fill="none" stroke="#000000" d="M190198.97 65871.93C190198.97 65542.32 190466.17 65275.119 190795.8 65275.119H193182.99C193341.27 65275.119 193493.08 65337.998 193605 65449.92 193716.92 65561.84 193779.8 65713.65 193779.8 65871.93V71745.15C193779.8 72074.769 193512.6 72341.97 193182.99 72341.97H190795.8C190466.17 72341.97 190198.97 72074.769 190198.97 71745.15Z"/>
<path transform="matrix(.001968504,0,0,.001968504,-34.84709,-76.24591)" d="M190556.83 65905.5C190556.83 65765.6 190670.24 65652.199 190810.13 65652.199H193168.64C193235.83 65652.199 193300.25 65678.88 193347.77 65726.38 193395.27 65773.89 193421.96 65838.32 193421.96 65905.5V70709.62C193421.96 70849.519 193308.55 70962.92 193168.64 70962.92H190810.13C190670.24 70962.92 190556.83 70849.519 190556.83 70709.62Z" fill="#ffffff" fill-rule="evenodd"/>
<path transform="matrix(.001968504,0,0,.001968504,-34.84709,-76.24591)" stroke-width="75" stroke-linecap="butt" stroke-linejoin="round" fill="none" stroke="#ffffff" d="M190556.83 65905.5C190556.83 65765.6 190670.24 65652.199 190810.13 65652.199H193168.64C193235.83 65652.199 193300.25 65678.88 193347.77 65726.38 193395.27 65773.89 193421.96 65838.32 193421.96 65905.5V70709.62C193421.96 70849.519 193308.55 70962.92 193168.64 70962.92H190810.13C190670.24 70962.92 190556.83 70849.519 190556.83 70709.62Z"/>
<path transform="matrix(.001968504,0,0,.001968504,-34.84709,-76.24591)" d="M191544.42 71682.94C191544.42 71437.22 191743.64 71238.02 191989.38 71238.02 192107.39 71238.02 192220.57 71284.9 192304.02 71368.339 192387.46 71451.77 192434.33 71564.94 192434.33 71682.94 192434.33 71928.66 192235.13 72127.85 191989.38 72127.85 191743.64 72127.85 191544.42 71928.66 191544.42 71682.94Z" fill="#ffffff" fill-rule="evenodd"/>
<path transform="matrix(.001968504,0,0,.001968504,-34.84709,-76.24591)" stroke-width="75" stroke-linecap="butt" stroke-linejoin="round" fill="none" stroke="#000000" d="M191544.42 71682.94C191544.42 71437.22 191743.64 71238.02 191989.38 71238.02 192107.39 71238.02 192220.57 71284.9 192304.02 71368.339 192387.46 71451.77 192434.33 71564.94 192434.33 71682.94 192434.33 71928.66 192235.13 72127.85 191989.38 72127.85 191743.64 72127.85 191544.42 71928.66 191544.42 71682.94Z"/>
<path transform="matrix(.001968504,0,0,.001968504,-34.84709,-76.24591)" d="M151635.52 93366.23H204759.52" fill-opacity="0" fill-rule="evenodd"/>
<path transform="matrix(.001968504,0,0,.001968504,-34.84709,-76.24591)" stroke-width="381" stroke-linecap="butt" stroke-linejoin="round" fill="none" stroke="#000000" d="M151635.52 93366.23H203453.8"/>
<path transform="matrix(.001968504,0,0,.001968504,-34.84709,-76.24591)" d="M203453.8 93366.23 203025.33 93794.699 204202.53 93366.23 203025.33 92937.76Z" fill-rule="evenodd"/>
<path transform="matrix(.001968504,0,0,.001968504,-34.84709,-76.24591)" stroke-width="381" stroke-linecap="butt" stroke-miterlimit="10" stroke-linejoin="miter" fill="none" stroke="#000000" d="M203453.8 93366.23 203025.33 93794.699 204202.53 93366.23 203025.33 92937.76Z"/>
<path transform="matrix(.001968504,0,0,.001968504,-34.84709,-76.24591)" d="M178234.27 118903.339H231574.27V154723.35H178234.27Z" fill="#f3f3f3" fill-rule="evenodd"/>
<path transform="matrix(.001968504,0,0,.001968504,-34.84709,-76.24591)" stroke-width="381" stroke-linecap="butt" stroke-linejoin="round" fill="none" stroke="#000000" d="M178234.27 118903.339H231574.27V154723.35H178234.27Z"/>
<text xml:space="preserve" transform="matrix(.75 0 0 .75 316.00776 157.81577)" font-size="13.104933" font-family="MUFUZY+STIXTwoText-Regular"><tspan y="27.580735" x="15 21.604886 27.449685 35.01123 41.09192 48.15548 55.62529 59.333986 65.41467 70.39455 73.474208 79.76457 87.31301 94.37657">Scheduler and </tspan></text>
<text xml:space="preserve" transform="matrix(.75 0 0 .75 316.00776 157.81577)" font-size="13.104933" font-family="MUFUZY+STIXTwoText-Regular"><tspan y="43.580736" x="15 22.03735 28.773285 38.536458 44.617147 49.59702 52.676679 58.967046 62.675745 66.38444 73.12038 78.96518 85.25555 89.33118 96.06711 101.04698">power allocator </tspan></text>
<text xml:space="preserve" transform="matrix(.75 0 0 .75 316.00776 157.81577)" font-size="13.104933" font-family="MUFUZY+STIXTwoText-Regular"><tspan y="59.580736" x="15 19.861929 25.942618 33.006177 36.74108 41.91753 46.045587 51.02546 54.760366 61.60114 69.07095 73.14658 79.22727 84.40372 87.483379 94.52072 101.25665 111.01983 117.10052 122.08039">redistributes power </tspan></text>
<text xml:space="preserve" transform="matrix(.75 0 0 .75 316.00776 157.81577)" font-size="13.104933" font-family="MUFUZY+STIXTwoText-Regular"><tspan y="75.580738" x="15 19.023215 25.75915 30.739026 33.818685 37.94674 45.508287 51.588975 54.668634 62.217077 68.179828 74.457088 78.58514">for the next </tspan></text>
<text xml:space="preserve" transform="matrix(.75 0 0 .75 316.00776 157.81577)" font-size="13.104933" font-family="MUFUZY+STIXTwoText-Italic" font-style="italic"><tspan y="75.580738" x="81.59451">u</tspan></text>
<text xml:space="preserve" transform="matrix(.75 0 0 .75 316.00776 157.81577)" font-size="13.104933" font-family="MUFUZY+STIXTwoText-Regular"><tspan y="75.580738" x="88.88771 91.70527 99.607547 107.50982 112.18828 117.36473"> TTIs.</tspan></text>
<path transform="matrix(.001968504,0,0,.001968504,-34.84709,-76.24591)" d="M45725.388 104605.53H98849.38" fill-opacity="0" fill-rule="evenodd"/>
<path transform="matrix(.001968504,0,0,.001968504,-34.84709,-76.24591)" stroke-width="381" stroke-linecap="butt" stroke-linejoin="round" fill="none" stroke="#000000" d="M45725.388 104605.53H97543.667"/>
<path transform="matrix(.001968504,0,0,.001968504,-34.84709,-76.24591)" d="M97543.667 104605.53 97115.199 105034 98292.4 104605.53 97115.199 104177.06Z" fill-rule="evenodd"/>
<path transform="matrix(.001968504,0,0,.001968504,-34.84709,-76.24591)" stroke-width="381" stroke-linecap="butt" stroke-miterlimit="10" stroke-linejoin="miter" fill="none" stroke="#000000" d="M97543.667 104605.53 97115.199 105034 98292.4 104605.53 97115.199 104177.06Z"/>
<path transform="matrix(.001968504,0,0,.001968504,-34.84709,-76.24591)" d="M204835 76625.167V119717.167" fill-opacity="0" fill-rule="evenodd"/>
<path transform="matrix(.001968504,0,0,.001968504,-34.84709,-76.24591)" stroke-width="381" stroke-linecap="butt" stroke-linejoin="round" fill="none" stroke="#000000" d="M204835 78069.16V118273.17"/>
<path transform="matrix(.001968504,0,0,.001968504,-34.84709,-76.24591)" d="M204835 76815.667C205181.14 76815.667 205461.75 77096.269 205461.75 77442.41 205461.75 77788.55 205181.14 78069.16 204835 78069.16 204488.86 78069.16 204208.25 77788.55 204208.25 77442.41 204208.25 77096.269 204488.86 76815.667 204835 76815.667Z"/>
<path transform="matrix(.001968504,0,0,.001968504,-34.84709,-76.24591)" stroke-width="381" stroke-linecap="butt" stroke-miterlimit="10" stroke-linejoin="miter" fill="none" stroke="#000000" d="M204835 76815.667C205181.14 76815.667 205461.75 77096.269 205461.75 77442.41 205461.75 77788.55 205181.14 78069.16 204835 78069.16 204488.86 78069.16 204208.25 77788.55 204208.25 77442.41 204208.25 77096.269 204488.86 76815.667 204835 76815.667Z"/>
<path transform="matrix(.001968504,0,0,.001968504,-34.84709,-76.24591)" d="M204835 119526.667C204488.86 119526.667 204208.25 119246.06 204208.25 118899.92 204208.25 118553.78 204488.86 118273.17 204835 118273.17 205181.14 118273.17 205461.75 118553.78 205461.75 118899.92 205461.75 119246.06 205181.14 119526.667 204835 119526.667Z"/>
<path transform="matrix(.001968504,0,0,.001968504,-34.84709,-76.24591)" stroke-width="381" stroke-linecap="butt" stroke-miterlimit="10" stroke-linejoin="miter" fill="none" stroke="#000000" d="M204835 119526.667C204488.86 119526.667 204208.25 119246.06 204208.25 118899.92 204208.25 118553.78 204488.86 118273.17 204835 118273.17 205181.14 118273.17 205461.75 118553.78 205461.75 118899.92 205461.75 119246.06 205181.14 119526.667 204835 119526.667Z"/>
<path transform="matrix(.001968504,0,0,.001968504,-34.84709,-76.24591)" d="M98611.08 109344.86H116635.08" fill-opacity="0" fill-rule="evenodd"/>
<path transform="matrix(.001968504,0,0,.001968504,-34.84709,-76.24591)" stroke-width="381" stroke-linecap="butt" stroke-dasharray="1524,1143" stroke-linejoin="round" fill="none" stroke="#000000" d="M98611.08 109344.86H116635.08"/>
<path transform="matrix(.001968504,0,0,.001968504,-34.84709,-76.24591)" d="M12706.015 94518.49H49618.017V114690.49H12706.015Z" fill-opacity="0" fill-rule="evenodd"/>
<text xml:space="preserve" transform="matrix(.75 0 0 .75 -9.835251 109.81412)" font-size="17.4732" font-family="MUFUZY+STIXTwoText-Italic" font-style="italic"><tspan y="31.774271" x="30.579205">t</tspan></text>
<text xml:space="preserve" transform="matrix(.75 0 0 .75 -9.835251 109.81412)" font-size="17.4732" font-family="MUFUZY+STIXTwoText-Regular"><tspan y="31.774271" x="35.784879 39.89108 52.471784"> = </tspan></text>
<text xml:space="preserve" transform="matrix(.75 0 0 .75 -9.835251 109.81412)" font-size="17.4732" font-family="MUFUZY+STIXTwoText-Italic" font-style="italic"><tspan y="31.774271" x="56.572629">u</tspan></text>
<path transform="matrix(.001968504,0,0,.001968504,-34.84709,-76.24591)" d="M149712.7 39240.919H167376.7V60984.919H149712.7Z" fill-opacity="0" fill-rule="evenodd"/>
<text xml:space="preserve" transform="matrix(.75 0 0 .75 259.86299 .9999924)" font-size="11.7752" font-family="MUFUZY+STIXTwoText-Bold" font-weight="bold"><tspan y="32.30419" x="21">*</tspan></text>
<path transform="matrix(.001968504,0,0,.001968504,-34.84709,-76.24591)" d="M134243.72 66762.12H170171.72" fill-opacity="0" fill-rule="evenodd"/>
<path transform="matrix(.001968504,0,0,.001968504,-34.84709,-76.24591)" stroke-width="701" stroke-linecap="butt" stroke-linejoin="round" fill="none" stroke="#000000" d="M134243.72 66762.12H170171.72"/>
<path transform="matrix(.001968504,0,0,.001968504,-34.84709,-76.24591)" d="M137321.35 66517.769V49345.76" fill-opacity="0" fill-rule="evenodd"/>
<path transform="matrix(.001968504,0,0,.001968504,-34.84709,-76.24591)" stroke-width="428" stroke-linecap="butt" stroke-linejoin="round" fill="none" stroke="#000000" d="M137321.35 66517.769V49345.76"/>
<path transform="matrix(.001968504,0,0,.001968504,-34.84709,-76.24591)" d="M149947.94 54186.08H152023.13V66739.93H149947.94Z" fill="#b7b7b7" fill-rule="evenodd"/>
<path transform="matrix(.001968504,0,0,.001968504,-34.84709,-76.24591)" stroke-width="428" stroke-linecap="butt" stroke-linejoin="round" fill="none" stroke="#000000" d="M149947.94 54186.08H152023.13V66739.93H149947.94Z"/>
<path transform="matrix(.001968504,0,0,.001968504,-34.84709,-76.24591)" d="M152091.19 49531.41H154166.38V66760.738H152091.19Z" fill="#b7b7b7" fill-rule="evenodd"/>
<path transform="matrix(.001968504,0,0,.001968504,-34.84709,-76.24591)" stroke-width="428" stroke-linecap="butt" stroke-linejoin="round" fill="none" stroke="#000000" d="M152091.19 49531.41H154166.38V66760.738H152091.19Z"/>
<path transform="matrix(.001968504,0,0,.001968504,-34.84709,-76.24591)" d="M154166.38 51456.75H156241.57V66734.89H154166.38Z" fill="#b7b7b7" fill-rule="evenodd"/>
<path transform="matrix(.001968504,0,0,.001968504,-34.84709,-76.24591)" stroke-width="428" stroke-linecap="butt" stroke-linejoin="round" fill="none" stroke="#000000" d="M154166.38 51456.75H156241.57V66734.89H154166.38Z"/>
<path transform="matrix(.001968504,0,0,.001968504,-34.84709,-76.24591)" d="M156309.63 57469.03H158384.82V66746.36H156309.63Z" fill="#b7b7b7" fill-rule="evenodd"/>
<path transform="matrix(.001968504,0,0,.001968504,-34.84709,-76.24591)" stroke-width="428" stroke-linecap="butt" stroke-linejoin="round" fill="none" stroke="#000000" d="M156309.63 57469.03H158384.82V66746.36H156309.63Z"/>
<path transform="matrix(.001968504,0,0,.001968504,-34.84709,-76.24591)" d="M158384.82 59524.845H160459.99V66777.36H158384.82Z" fill="#b7b7b7" fill-rule="evenodd"/>
<path transform="matrix(.001968504,0,0,.001968504,-34.84709,-76.24591)" stroke-width="428" stroke-linecap="butt" stroke-linejoin="round" fill="none" stroke="#000000" d="M158384.82 59524.845H160459.99V66777.36H158384.82Z"/>
<path transform="matrix(.001968504,0,0,.001968504,-34.84709,-76.24591)" d="M160528.07 61972.07H162603.24V66757.99H160528.07Z" fill="#b7b7b7" fill-rule="evenodd"/>
<path transform="matrix(.001968504,0,0,.001968504,-34.84709,-76.24591)" stroke-width="428" stroke-linecap="butt" stroke-linejoin="round" fill="none" stroke="#000000" d="M160528.07 61972.07H162603.24V66757.99H160528.07Z"/>
<path transform="matrix(.001968504,0,0,.001968504,-34.84709,-76.24591)" d="M162603.24 64045.51H164678.42V66769.81H162603.24Z" fill="#b7b7b7" fill-rule="evenodd"/>
<path transform="matrix(.001968504,0,0,.001968504,-34.84709,-76.24591)" stroke-width="428" stroke-linecap="butt" stroke-linejoin="round" fill="none" stroke="#000000" d="M162603.24 64045.51H164678.42V66769.81H162603.24Z"/>
<path transform="matrix(.001968504,0,0,.001968504,-34.84709,-76.24591)" d="M164746.49 65103.396H166821.67V66760.06H164746.49Z" fill="#b7b7b7" fill-rule="evenodd"/>
<path transform="matrix(.001968504,0,0,.001968504,-34.84709,-76.24591)" stroke-width="428" stroke-linecap="butt" stroke-linejoin="round" fill="none" stroke="#000000" d="M164746.49 65103.396H166821.67V66760.06H164746.49Z"/>
<path transform="matrix(.001968504,0,0,.001968504,-34.84709,-76.24591)" d="M141511.08 65096.34H143586.27V66753.01H141511.08Z" fill="#b7b7b7" fill-rule="evenodd"/>
<path transform="matrix(.001968504,0,0,.001968504,-34.84709,-76.24591)" stroke-width="428" stroke-linecap="butt" stroke-linejoin="round" fill="none" stroke="#000000" d="M141511.08 65096.34H143586.27V66753.01H141511.08Z"/>
<path transform="matrix(.001968504,0,0,.001968504,-34.84709,-76.24591)" d="M143654.33 64027.884H145729.52V66752.18H143654.33Z" fill="#b7b7b7" fill-rule="evenodd"/>
<path transform="matrix(.001968504,0,0,.001968504,-34.84709,-76.24591)" stroke-width="428" stroke-linecap="butt" stroke-linejoin="round" fill="none" stroke="#000000" d="M143654.33 64027.884H145729.52V66752.18H143654.33Z"/>
<path transform="matrix(.001968504,0,0,.001968504,-34.84709,-76.24591)" d="M145729.52 62603.275H147804.69V66763.34H145729.52Z" fill="#b7b7b7" fill-rule="evenodd"/>
<path transform="matrix(.001968504,0,0,.001968504,-34.84709,-76.24591)" stroke-width="428" stroke-linecap="butt" stroke-linejoin="round" fill="none" stroke="#000000" d="M145729.52 62603.275H147804.69V66763.34H145729.52Z"/>
<path transform="matrix(.001968504,0,0,.001968504,-34.84709,-76.24591)" d="M147872.77 60275.939H149947.94V66755.34H147872.77Z" fill="#b7b7b7" fill-rule="evenodd"/>
<path transform="matrix(.001968504,0,0,.001968504,-34.84709,-76.24591)" stroke-width="428" stroke-linecap="butt" stroke-linejoin="round" fill="none" stroke="#000000" d="M147872.77 60275.939H149947.94V66755.34H147872.77Z"/>
<path transform="matrix(.001968504,0,0,.001968504,-34.84709,-76.24591)" d="M146767.3 56369.869H148842.47V66731.22H146767.3Z" fill="#ffffff" fill-rule="evenodd"/>
<path transform="matrix(.001968504,0,0,.001968504,-34.84709,-76.24591)" stroke-width="428" stroke-linecap="butt" stroke-linejoin="round" fill="none" stroke="#000000" d="M146767.3 56369.869H148842.47V66731.22H146767.3Z"/>
<path transform="matrix(.001968504,0,0,.001968504,-34.84709,-76.24591)" d="M148910.55 52528.12H150985.72V66748.4H148910.55Z" fill="#ffffff" fill-rule="evenodd"/>
<path transform="matrix(.001968504,0,0,.001968504,-34.84709,-76.24591)" stroke-width="428" stroke-linecap="butt" stroke-linejoin="round" fill="none" stroke="#000000" d="M148910.55 52528.12H150985.72V66748.4H148910.55Z"/>
<path transform="matrix(.001968504,0,0,.001968504,-34.84709,-76.24591)" d="M150985.72 54117.208H153060.9V66727.06H150985.72Z" fill="#ffffff" fill-rule="evenodd"/>
<path transform="matrix(.001968504,0,0,.001968504,-34.84709,-76.24591)" stroke-width="428" stroke-linecap="butt" stroke-linejoin="round" fill="none" stroke="#000000" d="M150985.72 54117.208H153060.9V66727.06H150985.72Z"/>
<path transform="matrix(.001968504,0,0,.001968504,-34.84709,-76.24591)" d="M153128.97 59079.46H155204.16V66736.53H153128.97Z" fill="#ffffff" fill-rule="evenodd"/>
<path transform="matrix(.001968504,0,0,.001968504,-34.84709,-76.24591)" stroke-width="428" stroke-linecap="butt" stroke-linejoin="round" fill="none" stroke="#000000" d="M153128.97 59079.46H155204.16V66736.53H153128.97Z"/>
<path transform="matrix(.001968504,0,0,.001968504,-34.84709,-76.24591)" d="M155204.16 60776.23H157279.33V66762.12H155204.16Z" fill="#ffffff" fill-rule="evenodd"/>
<path transform="matrix(.001968504,0,0,.001968504,-34.84709,-76.24591)" stroke-width="428" stroke-linecap="butt" stroke-linejoin="round" fill="none" stroke="#000000" d="M155204.16 60776.23H157279.33V66762.12H155204.16Z"/>
<path transform="matrix(.001968504,0,0,.001968504,-34.84709,-76.24591)" d="M157347.4 62796.06H159422.58V66746.13H157347.4Z" fill="#ffffff" fill-rule="evenodd"/>
<path transform="matrix(.001968504,0,0,.001968504,-34.84709,-76.24591)" stroke-width="428" stroke-linecap="butt" stroke-linejoin="round" fill="none" stroke="#000000" d="M157347.4 62796.06H159422.58V66746.13H157347.4Z"/>
<path transform="matrix(.001968504,0,0,.001968504,-34.84709,-76.24591)" d="M159422.58 64507.38H161497.77V66755.88H159422.58Z" fill="#ffffff" fill-rule="evenodd"/>
<path transform="matrix(.001968504,0,0,.001968504,-34.84709,-76.24591)" stroke-width="428" stroke-linecap="butt" stroke-linejoin="round" fill="none" stroke="#000000" d="M159422.58 64507.38H161497.77V66755.88H159422.58Z"/>
<path transform="matrix(.001968504,0,0,.001968504,-34.84709,-76.24591)" d="M161565.85 65380.505H163641.02V66747.839H161565.85Z" fill="#ffffff" fill-rule="evenodd"/>
<path transform="matrix(.001968504,0,0,.001968504,-34.84709,-76.24591)" stroke-width="428" stroke-linecap="butt" stroke-linejoin="round" fill="none" stroke="#000000" d="M161565.85 65380.505H163641.02V66747.839H161565.85Z"/>
<path transform="matrix(.001968504,0,0,.001968504,-34.84709,-76.24591)" d="M138330.42 65374.685H140405.61V66742.019H138330.42Z" fill="#ffffff" fill-rule="evenodd"/>
<path transform="matrix(.001968504,0,0,.001968504,-34.84709,-76.24591)" stroke-width="428" stroke-linecap="butt" stroke-linejoin="round" fill="none" stroke="#000000" d="M138330.42 65374.685H140405.61V66742.019H138330.42Z"/>
<path transform="matrix(.001968504,0,0,.001968504,-34.84709,-76.24591)" d="M140473.67 64492.83H142548.86V66741.33H140473.67Z" fill="#ffffff" fill-rule="evenodd"/>
<path transform="matrix(.001968504,0,0,.001968504,-34.84709,-76.24591)" stroke-width="428" stroke-linecap="butt" stroke-linejoin="round" fill="none" stroke="#000000" d="M140473.67 64492.83H142548.86V66741.33H140473.67Z"/>
<path transform="matrix(.001968504,0,0,.001968504,-34.84709,-76.24591)" d="M142548.86 63317.02H144624.03V66750.55H142548.86Z" fill="#ffffff" fill-rule="evenodd"/>
<path transform="matrix(.001968504,0,0,.001968504,-34.84709,-76.24591)" stroke-width="428" stroke-linecap="butt" stroke-linejoin="round" fill="none" stroke="#000000" d="M142548.86 63317.02H144624.03V66750.55H142548.86Z"/>
<path transform="matrix(.001968504,0,0,.001968504,-34.84709,-76.24591)" d="M144692.11 61396.15H146767.3V66743.949H144692.11Z" fill="#ffffff" fill-rule="evenodd"/>
<path transform="matrix(.001968504,0,0,.001968504,-34.84709,-76.24591)" stroke-width="428" stroke-linecap="butt" stroke-linejoin="round" fill="none" stroke="#000000" d="M144692.11 61396.15H146767.3V66743.949H144692.11Z"/>
<path transform="matrix(.001968504,0,0,.001968504,-34.84709,-76.24591)" d="M123810.53 40006.845H141474.53V61750.845H123810.53Z" fill-opacity="0" fill-rule="evenodd"/>
<text xml:space="preserve" transform="matrix(.75 0 0 .75 208.87444 2.507721)" font-size="11.7752" font-family="MUFUZY+STIXTwoText-Bold" font-weight="bold"><tspan y="32.30419" x="21">P</tspan></text>
<path transform="matrix(.001968504,0,0,.001968504,-34.84709,-76.24591)" d="M155542.4 59642.55H180454.4V81386.55H155542.4Z" fill-opacity="0" fill-rule="evenodd"/>
<text xml:space="preserve" transform="matrix(.75 0 0 .75 271.33876 41.16069)" font-size="11.7752" font-family="MUFUZY+STIXTwoText-Bold" font-weight="bold"><tspan y="32.30419" x="21 29.584122">RB</tspan></text>
<path transform="matrix(.001968504,0,0,.001968504,-34.84709,-76.24591)" d="M14096.86 112293.699H35264.86V131661.69H14096.86Z" fill-opacity="0" fill-rule="evenodd"/>
<text xml:space="preserve" transform="matrix(.75 0 0 .75 -7.0973665 144.80466)" font-size="10.486" font-family="MUFUZY+STIXTwoText-Bold" font-weight="bold"><tspan y="28.066559" x="18 22.225859 27.41643">(1)</tspan></text>
<path transform="matrix(.001968504,0,0,.001968504,-34.84709,-76.24591)" d="M66779.3 112294.35H87947.3V131662.35H66779.3Z" fill-opacity="0" fill-rule="evenodd"/>
<text xml:space="preserve" transform="matrix(.75 0 0 .75 96.60823 144.80597)" font-size="10.486" font-family="MUFUZY+STIXTwoText-Bold" font-weight="bold"><tspan y="28.066559" x="18 22.225859 27.41643">(2)</tspan></text>
<path transform="matrix(.001968504,0,0,.001968504,-34.84709,-76.24591)" d="M119867 112294.35H141035V131662.35H119867Z" fill-opacity="0" fill-rule="evenodd"/>
<text xml:space="preserve" transform="matrix(.75 0 0 .75 201.11156 144.80597)" font-size="10.486" font-family="MUFUZY+STIXTwoText-Bold" font-weight="bold"><tspan y="28.066559" x="18 22.225859 27.41643">(3)</tspan></text>
<path transform="matrix(.001968504,0,0,.001968504,-34.84709,-76.24591)" d="M172954.99 112294.35H194122.99V131662.35H172954.99Z" fill-opacity="0" fill-rule="evenodd"/>
<text xml:space="preserve" transform="matrix(.75 0 0 .75 305.61549 144.80597)" font-size="10.486" font-family="MUFUZY+STIXTwoText-Bold" font-weight="bold"><tspan y="28.066559" x="18 22.225859 27.41643">(4)</tspan></text>
<path transform="matrix(.001968504,0,0,.001968504,-34.84709,-76.24591)" d="M45562.45 53367.208 42532.525 72330.81" fill-opacity="0" fill-rule="evenodd"/>
<path transform="matrix(.001968504,0,0,.001968504,-34.84709,-76.24591)" stroke-width="428" stroke-linecap="butt" stroke-linejoin="round" fill="none" stroke="#000000" d="M45562.45 53367.208 42532.525 72330.81"/>
<path transform="matrix(.001968504,0,0,.001968504,-34.84709,-76.24591)" d="M45562.45 53367.208 48592.376 72330.81" fill-opacity="0" fill-rule="evenodd"/>
<path transform="matrix(.001968504,0,0,.001968504,-34.84709,-76.24591)" stroke-width="428" stroke-linecap="butt" stroke-linejoin="round" fill="none" stroke="#000000" d="M45562.45 53367.208 48592.376 72330.81"/>
<path transform="matrix(.001968504,0,0,.001968504,-34.84709,-76.24591)" d="M47639.708 66290.417H43502.205" fill-opacity="0" fill-rule="evenodd"/>
<path transform="matrix(.001968504,0,0,.001968504,-34.84709,-76.24591)" stroke-width="428" stroke-linecap="butt" stroke-linejoin="round" fill="none" stroke="#000000" d="M47639.708 66290.417H43502.205"/>
<path transform="matrix(.001968504,0,0,.001968504,-34.84709,-76.24591)" d="M46918.119 61646.115 43569.92 66013.85" fill-opacity="0" fill-rule="evenodd"/>
<path transform="matrix(.001968504,0,0,.001968504,-34.84709,-76.24591)" stroke-width="428" stroke-linecap="butt" stroke-linejoin="round" fill="none" stroke="#000000" d="M46918.119 61646.115 43569.92 66013.85"/>
<path transform="matrix(.001968504,0,0,.001968504,-34.84709,-76.24591)" d="M44230.525 61761.58 47578.72 66129.31" fill-opacity="0" fill-rule="evenodd"/>
<path transform="matrix(.001968504,0,0,.001968504,-34.84709,-76.24591)" stroke-width="428" stroke-linecap="butt" stroke-linejoin="round" fill="none" stroke="#000000" d="M44230.525 61761.58 47578.72 66129.31"/>
<path transform="matrix(.001968504,0,0,.001968504,-34.84709,-76.24591)" d="M46399.498 58803.2 44231.025 61644.349" fill-opacity="0" fill-rule="evenodd"/>
<path transform="matrix(.001968504,0,0,.001968504,-34.84709,-76.24591)" stroke-width="428" stroke-linecap="butt" stroke-linejoin="round" fill="none" stroke="#000000" d="M46399.498 58803.2 44231.025 61644.349"/>
<path transform="matrix(.001968504,0,0,.001968504,-34.84709,-76.24591)" d="M44602.466 58660.083 46770.94 61501.228" fill-opacity="0" fill-rule="evenodd"/>
<path transform="matrix(.001968504,0,0,.001968504,-34.84709,-76.24591)" stroke-width="428" stroke-linecap="butt" stroke-linejoin="round" fill="none" stroke="#000000" d="M44602.466 58660.083 46770.94 61501.228"/>
<path transform="matrix(.001968504,0,0,.001968504,-34.84709,-76.24591)" d="M46364.134 58367.017H44794.005" fill-opacity="0" fill-rule="evenodd"/>
<path transform="matrix(.001968504,0,0,.001968504,-34.84709,-76.24591)" stroke-width="428" stroke-linecap="butt" stroke-linejoin="round" fill="none" stroke="#000000" d="M46364.134 58367.017H44794.005"/>
<path transform="matrix(.001968504,0,0,.001968504,-34.84709,-76.24591)" d="M48422.23 49990.64C48962.259 50273.33 49265.24 50708.833 49237.814 51162.96 49210.388 51617.09 48855.845 52035.35 48283.435 52288.865L47077.41 51106.3Z" fill-opacity="0" fill-rule="evenodd"/>
<path transform="matrix(.001968504,0,0,.001968504,-34.84709,-76.24591)" d="M48422.23 49990.64C48962.259 50273.33 49265.24 50708.833 49237.814 51162.96 49210.388 51617.09 48855.845 52035.35 48283.435 52288.865" fill-opacity="0" fill-rule="evenodd"/>
<path transform="matrix(.001968504,0,0,.001968504,-34.84709,-76.24591)" stroke-width="428" stroke-linecap="butt" stroke-linejoin="round" fill="none" stroke="#000000" d="M48422.23 49990.64C48962.259 50273.33 49265.24 50708.833 49237.814 51162.96 49210.388 51617.09 48855.845 52035.35 48283.435 52288.865"/>
<path transform="matrix(.001968504,0,0,.001968504,-34.84709,-76.24591)" d="M46462.669 49951.544C47422.205 50090.294 48087.666 50571.716 48076.85 51119.314 48066.044 51666.91 47381.736 52140.208 46416.95 52267.376L45914.87 51106.3Z" fill-opacity="0" fill-rule="evenodd"/>
<path transform="matrix(.001968504,0,0,.001968504,-34.84709,-76.24591)" d="M46462.669 49951.544C47422.205 50090.294 48087.666 50571.716 48076.85 51119.314 48066.044 51666.91 47381.736 52140.208 46416.95 52267.376" fill-opacity="0" fill-rule="evenodd"/>
<path transform="matrix(.001968504,0,0,.001968504,-34.84709,-76.24591)" stroke-width="428" stroke-linecap="butt" stroke-linejoin="round" fill="none" stroke="#000000" d="M46462.669 49951.544C47422.205 50090.294 48087.666 50571.716 48076.85 51119.314 48066.044 51666.91 47381.736 52140.208 46416.95 52267.376"/>
<path transform="matrix(.001968504,0,0,.001968504,-34.84709,-76.24591)" d="M42576.07 49990.64C42036.04 50273.33 41733.06 50708.833 41760.486 51162.96 41787.91 51617.09 42142.455 52035.35 42714.865 52288.865L43920.888 51106.3Z" fill-opacity="0" fill-rule="evenodd"/>
<path transform="matrix(.001968504,0,0,.001968504,-34.84709,-76.24591)" d="M42576.07 49990.64C42036.04 50273.33 41733.06 50708.833 41760.486 51162.96 41787.91 51617.09 42142.455 52035.35 42714.865 52288.865" fill-opacity="0" fill-rule="evenodd"/>
<path transform="matrix(.001968504,0,0,.001968504,-34.84709,-76.24591)" stroke-width="428" stroke-linecap="butt" stroke-linejoin="round" fill="none" stroke="#000000" d="M42576.07 49990.64C42036.04 50273.33 41733.06 50708.833 41760.486 51162.96 41787.91 51617.09 42142.455 52035.35 42714.865 52288.865"/>
<path transform="matrix(.001968504,0,0,.001968504,-34.84709,-76.24591)" d="M44535.63 49951.544C43576.095 50090.294 42910.634 50571.716 42921.447 51119.314 42932.255 51666.91 43616.564 52140.208 44581.349 52267.376L45083.427 51106.3Z" fill-opacity="0" fill-rule="evenodd"/>
<path transform="matrix(.001968504,0,0,.001968504,-34.84709,-76.24591)" d="M44535.63 49951.544C43576.095 50090.294 42910.634 50571.716 42921.447 51119.314 42932.255 51666.91 43616.564 52140.208 44581.349 52267.376" fill-opacity="0" fill-rule="evenodd"/>
<path transform="matrix(.001968504,0,0,.001968504,-34.84709,-76.24591)" stroke-width="428" stroke-linecap="butt" stroke-linejoin="round" fill="none" stroke="#000000" d="M44535.63 49951.544C43576.095 50090.294 42910.634 50571.716 42921.447 51119.314 42932.255 51666.91 43616.564 52140.208 44581.349 52267.376"/>
<path transform="matrix(.001968504,0,0,.001968504,-34.84709,-76.24591)" d="M56478.24 45001.216C56478.24 44503.68 56881.568 44100.35 57379.099 44100.35H60982.435C61221.36 44100.35 61450.498 44195.267 61619.44 44364.208 61788.384 44533.154 61883.298 44762.29 61883.298 45001.216V53858.42C61883.298 54355.955 61479.966 54759.28 60982.435 54759.28H57379.099C56881.568 54759.28 56478.24 54355.955 56478.24 53858.42Z" fill-rule="evenodd"/>
<path transform="matrix(.001968504,0,0,.001968504,-34.84709,-76.24591)" stroke-width="112" stroke-linecap="butt" stroke-linejoin="round" fill="none" stroke="#000000" d="M56478.24 45001.216C56478.24 44503.68 56881.568 44100.35 57379.099 44100.35H60982.435C61221.36 44100.35 61450.498 44195.267 61619.44 44364.208 61788.384 44533.154 61883.298 44762.29 61883.298 45001.216V53858.42C61883.298 54355.955 61479.966 54759.28 60982.435 54759.28H57379.099C56881.568 54759.28 56478.24 54355.955 56478.24 53858.42Z"/>
<path transform="matrix(.001968504,0,0,.001968504,-34.84709,-76.24591)" d="M57018.388 45051.45C57018.388 44840.28 57189.576 44669.099 57400.74 44669.099H60960.794C61062.2 44669.099 61159.455 44709.38 61231.158 44781.087 61302.865 44852.79 61343.146 44950.044 61343.146 45051.45V52296.92C61343.146 52508.09 61171.96 52679.275 60960.794 52679.275H57400.74C57189.576 52679.275 57018.388 52508.09 57018.388 52296.92Z" fill="#ffffff" fill-rule="evenodd"/>
<path transform="matrix(.001968504,0,0,.001968504,-34.84709,-76.24591)" stroke-width="112" stroke-linecap="butt" stroke-linejoin="round" fill="none" stroke="#ffffff" d="M57018.388 45051.45C57018.388 44840.28 57189.576 44669.099 57400.74 44669.099H60960.794C61062.2 44669.099 61159.455 44709.38 61231.158 44781.087 61302.865 44852.79 61343.146 44950.044 61343.146 45051.45V52296.92C61343.146 52508.09 61171.96 52679.275 60960.794 52679.275H57400.74C57189.576 52679.275 57018.388 52508.09 57018.388 52296.92Z"/>
<path transform="matrix(.001968504,0,0,.001968504,-34.84709,-76.24591)" d="M58509.12 53765.267C58509.12 53394.646 58809.826 53094.2 59180.759 53094.2 59358.888 53094.2 59529.72 53164.9 59655.677 53290.75 59781.63 53416.599 59852.39 53587.287 59852.39 53765.267 59852.39 54135.884 59551.69 54436.33 59180.759 54436.33 58809.826 54436.33 58509.12 54135.884 58509.12 53765.267Z" fill="#ffffff" fill-rule="evenodd"/>
<path transform="matrix(.001968504,0,0,.001968504,-34.84709,-76.24591)" stroke-width="112" stroke-linecap="butt" stroke-linejoin="round" fill="none" stroke="#000000" d="M58509.12 53765.267C58509.12 53394.646 58809.826 53094.2 59180.759 53094.2 59358.888 53094.2 59529.72 53164.9 59655.677 53290.75 59781.63 53416.599 59852.39 53587.287 59852.39 53765.267 59852.39 54135.884 59551.69 54436.33 59180.759 54436.33 58809.826 54436.33 58509.12 54135.884 58509.12 53765.267Z"/>
<path transform="matrix(.001968504,0,0,.001968504,-34.84709,-76.24591)" d="M45492.84 47515.634C45424.685 45251.775 46626.775 43139.439 48607.994 42041.634 50589.21 40943.826 53017.724 41044.42 54901.345 42302.32L51540.826 47333.587Z" fill-opacity="0" fill-rule="evenodd"/>
<path transform="matrix(.001968504,0,0,.001968504,-34.84709,-76.24591)" d="M45492.84 47515.634C45424.685 45251.775 46626.775 43139.439 48607.994 42041.634 50589.21 40943.826 53017.724 41044.42 54901.345 42302.32" fill-opacity="0" fill-rule="evenodd"/>
<path transform="matrix(.001968504,0,0,.001968504,-34.84709,-76.24591)" stroke-width="428" stroke-linecap="butt" stroke-linejoin="round" fill="none" stroke="#000000" d="M45553.576 46458.916 45567.779 46366.14C45573.31 46331.98 45579.13 46297.896 45585.236 46263.884 45609.669 46127.84 45638.705 45993.02 45672.22 45859.634 45806.29 45326.095 46012.076 44815.509 46281.9 44341.365 46821.556 43393.07 47617.384 42590.537 48607.994 42041.634 50589.21 40943.826 53017.724 41044.42 54901.345 42302.32"/>
<path transform="matrix(.001968504,0,0,.001968504,-34.84709,-76.24591)" d="M45553.576 46458.916 45320.54 46197.46 45528.744 46890.97 45815.029 46225.88Z" fill-rule="evenodd"/>
<path transform="matrix(.001968504,0,0,.001968504,-34.84709,-76.24591)" stroke-width="428" stroke-linecap="butt" stroke-miterlimit="10" stroke-linejoin="miter" fill="none" stroke="#000000" d="M45553.576 46458.916 45320.54 46197.46 45528.744 46890.97 45815.029 46225.88Z"/>
<path transform="matrix(.001968504,0,0,.001968504,-34.84709,-76.24591)" d="M57581.439 56986.81C57615.72 58951.837 56692.04 60810.755 55105.154 61970.388 53518.267 63130.017 51466.47 63445.447 49604.498 62816.017L51539.74 57092.189Z" fill-opacity="0" fill-rule="evenodd"/>
<path transform="matrix(.001968504,0,0,.001968504,-34.84709,-76.24591)" d="M57581.439 56986.81C57615.72 58951.837 56692.04 60810.755 55105.154 61970.388 53518.267 63130.017 51466.47 63445.447 49604.498 62816.017" fill-opacity="0" fill-rule="evenodd"/>
<path transform="matrix(.001968504,0,0,.001968504,-34.84709,-76.24591)" stroke-width="428" stroke-linecap="butt" stroke-linejoin="round" fill="none" stroke="#000000" d="M57506.78 58042.634 57501.63 58077.037C57481.966 58196.06 57458.779 58314.236 57432.138 58431.416 57325.568 58900.14 57163.73 59352.966 56951.236 59780.62 56526.24 60635.935 55898.595 61390.57 55105.154 61970.388 53518.267 63130.017 51466.47 63445.447 49604.498 62816.017"/>
<path transform="matrix(.001968504,0,0,.001968504,-34.84709,-76.24591)" d="M57506.78 58042.634 57736.35 58307.138 57537.306 57610.947 57242.279 58272.205Z" fill-rule="evenodd"/>
<path transform="matrix(.001968504,0,0,.001968504,-34.84709,-76.24591)" stroke-width="428" stroke-linecap="butt" stroke-miterlimit="10" stroke-linejoin="miter" fill="none" stroke="#000000" d="M57506.78 58042.634 57736.35 58307.138 57537.306 57610.947 57242.279 58272.205Z"/>
<path transform="matrix(.001968504,0,0,.001968504,-34.84709,-76.24591)" d="M55835.994 38819.244H79607.66V60567.57H55835.994Z" fill-opacity="0" fill-rule="evenodd"/>
<text xml:space="preserve" transform="matrix(.75 0 0 .75 75.066287 .16992188)" font-size="11.7752" font-family="MUFUZY+STIXTwoText-Bold" font-weight="bold"><tspan y="32.30419" x="21 30.408387">UE</tspan></text>
<path transform="matrix(.001968504,0,0,.001968504,-34.84709,-76.24591)" d="M28196.032 50602.869H51967.697V72351.199H28196.032Z" fill-opacity="0" fill-rule="evenodd"/>
<text xml:space="preserve" transform="matrix(.75 0 0 .75 20.656907 23.366028)" font-size="11.7752" font-family="MUFUZY+STIXTwoText-Bold" font-weight="bold"><tspan y="32.30419" x="21 28.912936">BS</tspan></text>
</g>
</g>
</g>
</svg>
